<svg version="1.2" xmlns="http://www.w3.org/2000/svg" viewBox="0 0 1008 226" width="1008" height="226">
	<title>&lt;Compound Path&gt;</title>
	<defs>
		<linearGradient id="g1" x1="-6.4" y1="85.6" x2="96.1" y2="-197.4" gradientUnits="userSpaceOnUse">
			<stop offset="0" stop-color="#6742a4"/>
			<stop offset="1" stop-color="#f7758f"/>
		</linearGradient>
	</defs>
	<style>
		.s0 { fill: url(#g1) } 
	</style>
	<path id="&lt;Compound Path&gt;" fill-rule="evenodd" class="s0" d="m788.8 62.9c3.9-0.5 7.9-0.8 11.6-0.9 14.6-0.7 27 0.3 32.5 0.1-5.5-0.5-9.8-1-13.2-1.5-1.6-0.2-1.6-2.5 0-2.6 10.8-0.6 27.3-1.1 40.7 0.7 2.4-4.6 7.9-6.4 12.6-4.3 0.5-3.3 3-5.9 6.2-6.8 3.2-0.8 6.6 0.2 8.8 2.8 0.1-0.8 0.6-1.4 1.4-1.8 0.7-0.3 1.5-0.2 2.2 0.3 4.6-14.6 27.4-15.2 29.1 6.2 2.1-1 4.5-0.9 6.5 0.3 1.9 1.3 3.1 3.5 3.1 5.8 10.3-3.4 16.3 4.3-1.2 3.9 3 0.3 6.1 0.6 9.3 0.8 7.6 0.6 15.8 1.1 23.2 1.7 0.6 0 0.5 0.8 0 0.8-10.2 0.1-15.3 0.1-24.1 1.7-11.1 2.1-29 0.5-36.7 0-7.6-0.5-22-2-8.2-4.9-20.7-0.7-23.1 2.5-46.4 2.6-17.6 0.1-39.7-1.9-57.3-2.3-1.6-0.1-1.7-2.4-0.1-2.6zm184.8 35c0 0.4-0.3 0.7-0.7 0.8-23.6 2.1-35.1 28.5-54.7 29.2-20.8 0.8-23.6 1.6-37.2 6-2 0.7-4.2 1.4-6.7 2.2-12.5 4-37.1 5.1-63.3 2.1-4 2.8-7.7 3.3-11.2 3.3-2.2 0.3-3.9 0.2-3.9-0.1q0-0.1 0-0.1c-3.6-0.3-7.3-0.6-11.2 0.5-6.2 1.8-12.4 3.5-18.8 4.3 1.1 3.4 0.8 7.2-1.2 10.5-3.8 6.4-12-14.7-18.6-18.1-5 4.6-12.5 4.9-17.9 0.8-1.6 1.7-3.5 3.1-5.6 4.1-4.7 2.1-10.2 2.4-15.2 0.5-9.6 5.2-18 8-29 6.4-6.6-1-12.9-4.2-19.7-2.5-16.5 4.3-32.6 6.6-49.6 3.8-9-1.5-17.6-4.4-26.6-1.3-0.9 0.3-2 0.5-3.2 0.7-9.3 1.5-27.6 3-33-3.6-0.6-0.7-1.8-1.3-2.8-0.8-3.4 1.6-7.1 2.5-10.8 2.6-4.7 0.2-9.4-0.9-13.7-3.1-4-1-7.3-3.7-8.9-7.4-1.6-3.6-1.5-7.7 0.4-11.2-9.6 4.1-21.6 4.1-30.8-1.4-3.3-0.3-6-2.4-7.2-5.3-5 1.3-10.3 3-17.1 5.3-3.6 1.1-7.6 2.4-12.1 3.9-35.5 11.4-126.5 9.6-196.6-14.3-25.6-8.7-53.2-14.6-79.2-19.1-45.2-7.8-85.8-11.3-103.1-18.2-20.7-8.1-44.2-13.9-63.1-17.4-0.5-0.1-0.8-0.5-0.8-1.1 0.1-0.5 0.6-0.9 1.1-0.8 66.1 4.5 94.2 29.3 175.5 15.1-30.7-12.4 17.9-24.9 22.5-7.3 14.2-9 28.1-1.1 24 9.7 49.2-19.5 95-22.5 69.6 7.7 46.8-15 62.8 2.4 61.2 14.1 62.9-0.2 73.8-11.7 113.6-10.8 6.4 0.2 33.8 1.3 58 0.8 0.5 0 0.9 0.4 0.9 0.9 0 0.4-0.3 0.9-0.8 0.9-21.9 1.8-46.1 2.8-64.5 7-1.1 0.3-1.8 1.2-1.7 2.3 0.1 1.1 0.9 2 2 2 8 0.6 17.9 1 28.8 1.2 2.9-1.9 6.4-2.8 9.9-2.6q1.6 0.1 3 0.5c1.8 0.3 3.6 1.1 5.3 2.3q5.3 0 10.8 0c1.4-2.1 3-4 4.7-5.5q2.2-2 4.8-3.6c2.5-1.5 5.3-3 8.1-3.6 9.6-2.1 17.2-0.6 26.4 4.4q1.8 1.2 3.3 2.6c4.5-6.5 12.2-10.1 20.1-9.6q0-0.1 0 0 0 0 0.1 0c7.9 0.5 14.9 5.3 18.5 12.3 1-2.1 3.1-3.6 5.5-4 2.4-0.3 4.8 0.6 6.3 2.4 3-1.4 6.5-1.3 9.4 0.2 3 1.4 5.2 4.1 5.9 7.2 8.9-6.1 22.3-5.1 29.5 3.2 5.8-3.8 11.5-7.3 18.5-8.6 7.3-1.5 14.9-1 22 1.2q1-2.1 2.5-3.8 1.1-1.3 2.4-2.4 1.8-1.4 3.9-2.4c-22-3.5-41-5.5-49.6-8.9-11.6-4.5-24.8-7.8-35.4-9.7-0.3-0.1-0.5-0.3-0.4-0.6 0-0.3 0.3-0.5 0.6-0.5 37 2.5 52.7 16.4 98.3 8.5-17.2-7 10.1-14 12.6-4.1 8-5.1 15.8-0.7 13.4 5.4 27.7-10.9 53.3-12.6 39.1 4.3 26.1-8.4 35.1 1.3 34.2 7.9q0.1 0 0.1 0 0.7 0 1.4 0c3.7-2.5 9.4-2.7 13.3-0.4 22.8-1.5 30.1-6 48.9-5.6 3.6 0.1 18.9 0.7 32.5 0.4 0.3 0 0.5 0.2 0.5 0.5 0 0.3-0.2 0.5-0.5 0.5-12.2 1.1-25.8 1.6-36.1 4-0.6 0.1-1 0.7-1 1.3 0.1 0.6 0.6 1 1.2 1.1 20.5 1.5 61.4 0.3 88.1 0.2 0.4 0.1 0.7 0.3 0.8 0.7zm-614.1-23.2q0.3-0.1 0.5-0.2c1.4-0.6 3.3-1.1 5.3-0.9 1.4-3.4 4.5-5.7 8.1-6.2 3.7-0.4 7.3 1 9.5 3.9 0.3-1.7 1.7-3.1 3.5-3.2 1.8-0.1 3.4 1.1 3.8 2.8 10.2-3.1 14.5 2.8 9.4 5.4 3 0 5.9 0.6 9.2 1.1q1.2 0.1 2.5 0.2c0.5 0.1 0.5 0.7 0.1 0.8-10.1 1.3-23.2 2.1-28.7 2.2-5.7 0-10.7 0.4-7.9-2-5.2 0.4-11.9-0.5-15.2-2.3-0.7-0.4-0.8-1.3-0.1-1.6z"/>
</svg>