<svg version="1.2" xmlns="http://www.w3.org/2000/svg" viewBox="0 0 790 399" width="790" height="399">
	<title>&lt;Compound Path&gt;</title>
	<defs>
		<linearGradient id="g1" x1="792" y1="2.1" x2="792" y2="395.7" gradientUnits="userSpaceOnUse">
			<stop offset=".5" stop-color="#808080"/>
			<stop offset="1" stop-color="#f7758f"/>
		</linearGradient>
	</defs>
	<style>
		.s0 { fill: #7853b8 } 
		.s1 { fill: #8260bd } 
		.s2 { fill: #ffb3bf } 
		.s3 { fill: #6642a3 } 
		.s4 { fill: #5d3d95 } 
		.s5 { fill: #9274c6 } 
		.s6 { fill: #4a3077 } 
		.s7 { fill: #8c56c5 } 
		.s8 { fill: #6a47af } 
		.s9 { fill: #724bb4 } 
		.s10 { fill: #5a399a } 
		.s11 { fill: #7d5db9 } 
		.s12 { fill: #7656b5 } 
		.s13 { fill: #6541ab } 
		.s14 { fill: #8567be } 
		.s15 { fill: #3e2868 } 
		.s16 { fill: #8362be } 
		.s17 { fill: #7752b8 } 
		.s18 { fill: #6742a4 } 
		.s19 { fill: #8a6ac1 } 
		.s20 { mix-blend-mode: soft-light;fill: url(#g1) } 
	</style>
	<g id="&lt;Group&gt;">
		<g id="&lt;Group&gt;">
			<path id="&lt;Path&gt;" class="s0" d="m384.8 386.8q4.2-0.4 8.2-0.6c10.2-0.5 18.8 0.2 22.7 0.1-3.8-0.4-6.9-0.7-9.3-1-1.1-0.2-1-1.8 0.1-1.9 7.5-0.4 19.1-0.7 28.4 0.5 1.7-3.2 5.6-4.5 8.8-3 0.4-2.3 2.1-4.1 4.4-4.8 2.2-0.5 4.6 0.2 6.1 2 0.1-0.5 0.5-1 1-1.2 0.5-0.2 1.1-0.2 1.6 0.1 3.2-10.2 19.1-10.6 20.3 4.4 1.5-0.7 3.2-0.6 4.6 0.2 1.4 0.9 2.2 2.4 2.1 4 7.3-2.3 11.4 3.1-0.7 2.8 2 0.2 4.2 0.4 6.4 0.6 5.4 0.4 11.1 0.7 16.3 1.1 0.4 0 0.4 0.6 0 0.6-7.2 0-10.7 0.1-16.9 1.2-7.7 1.4-20.3 0.4-25.6 0-5.4-0.3-15.5-1.4-5.8-3.4-14.5-0.5-16.2 1.7-32.5 1.8-12.3 0-27.8-1.3-40.1-1.7-1.1 0-1.2-1.6-0.1-1.8z"/>
			<ellipse id="&lt;Path&gt;" class="s1" cx="464.4" cy="372.7" rx="3.2" ry="1.6"/>
			<ellipse id="&lt;Path&gt;" class="s1" cx="448.1" cy="378.2" rx="1.8" ry="1"/>
			<path id="&lt;Path&gt;" class="s1" d="m439.7 381.5c0.7 0 1.2 0.3 1.2 0.7 0 0.4-0.5 0.7-1.2 0.7-0.6 0-1.1-0.3-1.1-0.7 0-0.4 0.5-0.7 1.1-0.7z"/>
			<ellipse id="&lt;Path&gt;" class="s1" cx="479.5" cy="382.8" rx="1.8" ry=".7"/>
			<path id="&lt;Path&gt;" class="s2" d="m384.8 386.8q4.2-0.4 8.2-0.6c8.2 3.1 19.7 2.7 27.9 1.5 9.4-1.4 15.7-1.2 21.3-0.4 5.6 0.9 15.3-4.6 19-0.5 3.7 4.1 5.1 0.5 12.8 2.5 6.6 1.8 9 1.9 15.5-0.3 5.4 0.4 11.1 0.7 16.3 1.1 0.4 0 0.4 0.6 0 0.6-7.2 0-10.7 0.1-16.9 1.2-7.7 1.4-20.3 0.4-25.6 0-5.4-0.3-15.5-1.4-5.8-3.4-14.5-0.5-16.2 1.7-32.5 1.8-12.3 0-27.8-1.3-40.1-1.7-1.1 0-1.2-1.6-0.1-1.8z"/>
			<path id="&lt;Path&gt;" class="s1" d="m469.5 377.9c-1.6-1.4-3.4-1.2-6.2-0.5 1.4-2.4 3.9-2 5.5-0.9 1.2-0.9 3.5-1.6 5.3 1.2 0.4 0.3-3.5-2.7-4.6 0.2z"/>
			<path id="&lt;Path&gt;" class="s1" d="m460 378c-1.4-1.3-3.5-1-4.3 0.9 1.5-1.3 4.4-0.9 4.3-0.9z"/>
			<path id="&lt;Path&gt;" class="s2" d="m472.2 387.2c-1.7 1-5.5 1-7.2-1.9 0.8 0.7 2.3 2.5 6.4 1.1 4-1.4 3.7 2 7.7 1.5-2.6 1.8-5.3-1.6-6.9-0.7z"/>
		</g>
		<g id="&lt;Group&gt;">
			<path id="&lt;Path&gt;" class="s0" d="m354.6 370.8c0.6-1.3 1.6-2.5 3-3.3 3-1.7 6.8-0.9 8.9 1.9 0.8-3.4 3.9-5.8 7.4-5.8 3.5 0 6.6 2.4 7.4 5.9 0.4-0.2 0.8-0.1 1.1 0.2 0.3 0.2 0.5 0.6 0.5 1 5.6-2.5 7.6 0.1 7.5 1.7 1.3 0.1 2.9 0.5 4.2 1q0.2 0.1 0.4 0.3c0.3 0.4 0 1.1-0.6 1.2-3.6 0.4-9.9 1-14.6 0.4 1.6 1.6-12.8 1.6-21.7 1.1-2.2-0.1-3.9-2-3.8-4.1q0-0.8 0.3-1.5z"/>
			<ellipse id="&lt;Path&gt;" class="s1" cx="373.3" cy="365.1" rx="2.7" ry=".9"/>
			<ellipse id="&lt;Path&gt;" class="s1" cx="358.9" cy="368.6" rx="1.9" ry=".8"/>
			<path id="&lt;Path&gt;" class="s1" d="m385.7 370.3c0.8 0 1.5 0.3 1.5 0.5 0 0.3-0.7 0.5-1.5 0.5-0.8 0-1.4-0.2-1.4-0.5 0-0.2 0.6-0.5 1.4-0.5z"/>
			<path id="&lt;Path&gt;" class="s1" d="m391.2 373.3c0.7 0 1.2 0.1 1.2 0.1 0 0.1-0.5 0.2-1.2 0.2-0.6 0-1.1-0.1-1.1-0.2 0 0 0.5-0.1 1.1-0.1z"/>
			<path id="&lt;Path&gt;" class="s2" d="m370.3 374.5c2.8-2 15.7 1.1 17.1-0.3 2.2 0.5 5.3 0.6 7.6-0.5 0.3 0.4 0 1.1-0.6 1.2-3.6 0.4-9.9 1-14.6 0.4 1.6 1.6-12.8 1.6-21.7 1.1-2.2-0.1-3.9-2-3.8-4.1 5.5 3.9 13.6 4 16 2.2z"/>
			<path id="&lt;Path&gt;" class="s2" d="m362.7 372.5c3.3 1.4 5.1 1.7 7.5-0.5 2.3-2.1 5.1 2.4 8.8 0-3.9 2.6-5.8 0.5-7 0.2-1.2-0.4-3.9 4.9-9.3 0.3z"/>
			<path id="&lt;Path&gt;" class="s1" d="m379.7 371.1c0.3-1.1-0.9-1.9-2.2-2 1-0.5 2.2-0.2 2.6 1.4 1.4-0.3 2.5 0.5 3 1.6-0.3-0.4-1.8-1.5-3.4-1z"/>
			<path id="&lt;Path&gt;" class="s1" d="m367.8 370c-0.7-0.6-1.8-0.2-2.5 0.4 1.3-0.3 2.5-0.4 2.5-0.4z"/>
		</g>
		<g id="&lt;Group&gt;">
			<path id="&lt;Path&gt;" class="s0" d="m323.8 250.6c0.1 2.1-1.6 4.1-3.8 4.2-8.9 0.5-23.3 0.5-21.8-1.1-4.7 0.6-10.9 0-14.5-0.4-0.6-0.1-0.9-0.8-0.6-1.2q0.2-0.2 0.4-0.3c1.3-0.5 2.9-1 4.1-1.1 0-1.5 2-4.2 7.6-1.6 0-0.4 0.1-0.8 0.5-1.1 0.3-0.2 0.7-0.3 1.1-0.2 0.8-3.4 3.9-5.8 7.4-5.8 3.5 0 6.6 2.4 7.4 5.8 2.1-2.8 5.9-3.6 8.9-1.9 1.4 0.8 2.4 1.9 3 3.3q0.3 0.7 0.3 1.4z"/>
			<ellipse id="&lt;Path&gt;" class="s1" cx="304.8" cy="243.5" rx="2.7" ry=".9"/>
			<ellipse id="&lt;Path&gt;" class="s1" cx="319.2" cy="247" rx="1.9" ry=".8"/>
			<path id="&lt;Path&gt;" class="s1" d="m293.8 249.2c0 0.3-0.7 0.5-1.4 0.5-0.8 0-1.5-0.2-1.5-0.5 0-0.3 0.7-0.5 1.5-0.5 0.7 0 1.4 0.2 1.4 0.5z"/>
			<path id="&lt;Path&gt;" class="s1" d="m288 251.8c0 0.1-0.5 0.1-1.1 0.1-0.7 0-1.2 0-1.2-0.1 0-0.1 0.5-0.1 1.2-0.1 0.6 0 1.1 0 1.1 0.1z"/>
			<path id="&lt;Path&gt;" class="s2" d="m323.8 250.6c0.1 2.1-1.6 4.1-3.8 4.2-8.9 0.5-23.3 0.5-21.8-1.1-4.7 0.6-10.9 0-14.5-0.4-0.6-0.1-0.9-0.8-0.6-1.2 2.3 1.1 5.4 1 7.5 0.5 1.5 1.4 14.4-1.8 17.2 0.3 2.4 1.8 10.5 1.7 16-2.3z"/>
			<path id="&lt;Path&gt;" class="s2" d="m306.1 250.5c-1.2 0.4-3.1 2.5-7-0.1 3.7 2.4 6.5-2.1 8.8 0 2.4 2.1 4.2 1.9 7.4 0.5-5.3 4.5-8-0.7-9.2-0.4z"/>
			<path id="&lt;Path&gt;" class="s1" d="m295 250.5c0.5-1.1 1.6-1.9 3-1.6 0.4-1.6 1.6-1.9 2.6-1.4-1.3 0.1-2.5 0.8-2.2 2-1.6-0.5-3.1 0.5-3.4 1z"/>
			<path id="&lt;Path&gt;" class="s1" d="m310.3 248.4c0.7-0.6 1.8-0.2 2.5 0.3-1.3-0.2-2.5-0.3-2.5-0.3z"/>
		</g>
		<g id="&lt;Group&gt;">
			<path id="&lt;Path&gt;" class="s0" d="m481.2 372.7q1.9-0.3 3.7-0.7 2.5-0.5 4.6-1c-1-6.6 3.2-12.9 9.7-14.4 6.5-1.5 13 2.3 15 8.6 1.1-1.1 2.6-1.8 4.2-1.8 1.6 0 3.2 0.7 4.3 1.9 1.1-3.2 3.9-5.6 7.3-6.1 3.3-0.6 6.8 0.7 8.9 3.3 2.2 2.7 2.7 6.3 1.5 9.4 15.4 0.2 22.1 2 27.8 3.5q0 0 0.1 0c0.8 0.2 1.4 1 1.3 1.9-0.1 0.9-0.8 1.5-1.7 1.6q-9.7 0.3-19.8-0.4 2 0.9 4.7 1.7c0.2 0.1 0.4 0.4 0.3 0.7 0 0.2-0.3 0.4-0.5 0.4-8.8-0.3-21.3-0.9-31.2 0.2-0.3 0.1-0.7-0.2-0.8-0.6-0.1-0.3 0.1-0.7 0.4-0.9q0.5-0.3 1-0.5c0.3-0.2 0.4-0.6 0.3-1-0.1-0.3-0.5-0.5-0.9-0.4-3.2 0.8-7.9 1.7-13.8 2-0.1 0-0.2-0.1-0.3-0.2 0-0.2 0-0.3 0.2-0.4 0.2-0.1 0.3-0.3 0.2-0.5 0-0.2-0.2-0.3-0.4-0.3-12.6 1.2-20.6-0.2-26.4-2.3-1.9-0.7-1.7-3.4 0.3-3.7z"/>
			<ellipse id="&lt;Path&gt;" class="s1" cx="499.4" cy="360.3" rx="4.8" ry="2.4"/>
			<ellipse id="&lt;Path&gt;" class="s1" cx="517.2" cy="365.9" rx="2.4" ry="1.1"/>
			<ellipse id="&lt;Path&gt;" class="s1" cx="529.8" cy="362.3" rx="3.1" ry="2.1"/>
			<ellipse id="&lt;Path&gt;" class="s1" cx="545.4" cy="374.3" rx="6.8" ry=".6"/>
			<path id="&lt;Path&gt;" class="s2" d="m481.2 372.7q1.9-0.3 3.7-0.7c2.1 3.3 15.9 5 22.9 2.3 8.2-3.1 6.9 4 16.5 0.9 3.5 5.5 12.8 5.3 18.8 2.5 5.2-2.4 16.6 1.2 25.1-2.3q0 0 0.1 0c0.8 0.2 1.4 1 1.3 1.9-0.1 0.9-0.8 1.5-1.7 1.6q-9.7 0.3-19.8-0.4 2 0.9 4.7 1.7c0.2 0.1 0.4 0.4 0.3 0.7 0 0.2-0.3 0.4-0.5 0.4-8.8-0.3-21.3-0.9-31.2 0.2-0.3 0.1-0.7-0.2-0.8-0.6-0.1-0.3 0.1-0.7 0.4-0.9q0.5-0.3 1-0.5c0.3-0.2 0.4-0.6 0.3-1-0.1-0.3-0.5-0.5-0.9-0.4-3.2 0.8-7.9 1.7-13.8 2-0.1 0-0.2-0.1-0.3-0.2 0-0.2 0-0.3 0.2-0.4 0.2-0.1 0.3-0.3 0.2-0.5 0-0.2-0.2-0.3-0.4-0.3-12.6 1.2-20.6-0.2-26.4-2.3-1.9-0.7-1.7-3.4 0.3-3.7z"/>
			<path id="&lt;Path&gt;" class="s2" d="m530.1 374.8c-3.5 1-6.3 0.4-9.1-2.5 3.6 6.7 6.9 3.5 9.1 2.5z"/>
			<path id="&lt;Path&gt;" class="s2" d="m502.6 371.5c-5.5 1.9-8.6 0.1-9.4-1.5 1.7 4.5 5.4 4.2 9.4 1.5z"/>
		</g>
		<g id="&lt;Group&gt;">
			<path id="&lt;Path&gt;" class="s0" d="m547.5 362.3q0.2-0.1 0.5-0.2c1.4-0.5 3.2-1 5.2-0.8 1.4-3.4 4.5-5.7 8.2-6.2 3.6-0.5 7.2 1 9.4 3.9 0.3-1.8 1.7-3.1 3.5-3.2 1.8-0.1 3.4 1.1 3.9 2.8 10.1-3.1 14.4 2.8 9.4 5.3 2.9 0 5.8 0.7 9.1 1.1q1.3 0.2 2.6 0.3c0.4 0.1 0.4 0.7 0 0.8-10.1 1.3-23.1 2.1-28.7 2.2-5.7 0-10.7 0.4-7.9-2-5.1 0.4-11.8-0.5-15.2-2.3-0.7-0.4-0.8-1.3 0-1.7z"/>
			<ellipse id="&lt;Path&gt;" class="s1" cx="561.5" cy="357.4" rx="3.3" ry="1.3"/>
			<path id="&lt;Path&gt;" class="s1" d="m573.2 356.9c0.6 0 1.1 0.4 1.1 0.8 0 0.4-0.5 0.8-1.1 0.8-0.5 0-1-0.4-1-0.8 0-0.4 0.5-0.8 1-0.8z"/>
			<ellipse id="&lt;Path&gt;" class="s1" cx="582.3" cy="359.3" rx="3.7" ry=".5"/>
			<path id="&lt;Path&gt;" class="s1" d="m586.7 365c0-0.2 1.1-0.3 2.5-0.3 1.4 0 2.5 0.1 2.5 0.3 0 0.1-1.1 0.3-2.5 0.3-1.4 0-2.5-0.2-2.5-0.3z"/>
			<path id="&lt;Path&gt;" class="s1" d="m550.8 361.9c0.9 0 1.7 0.1 1.7 0.3 0 0.3-0.8 0.4-1.7 0.4-1 0-1.8-0.1-1.8-0.4 0-0.2 0.8-0.3 1.8-0.3z"/>
			<path id="&lt;Path&gt;" class="s2" d="m547.5 362.3q0.2-0.1 0.5-0.2c1.3 2.3 10.7 3.9 13.8 2.8 3.4-1.2 1.8 3.6 6.8 2.1 5.1-1.4 9.3-1.8 14.5-0.9 4.4 0.7 10.8 0 13.6-1.1q1.3 0.2 2.6 0.3c0.4 0.1 0.4 0.7 0 0.8-10.1 1.3-23.1 2.1-28.7 2.2-5.7 0-10.7 0.4-7.9-2-5.1 0.4-11.8-0.5-15.2-2.3-0.7-0.4-0.8-1.3 0-1.7z"/>
			<path id="&lt;Path&gt;" class="s2" d="m560.6 362.3c3.5 1.4 2.7-0.3 6.3 0.8 3.6 1.2 3.7-1.2 6.2-0.2-1.3-0.4-2.6 0.8-4.7 2-2.2 1.2-2.5-2.7-4.4-1.5q-1.8 1.2-3.4-1.1z"/>
			<path id="&lt;Path&gt;" class="s1" d="m572.9 359.7c-1.4-0.8-2.5-0.9-3.5 0.4 1.6-0.7 2.4-0.8 3.5-0.4z"/>
		</g>
		<g id="&lt;Group&gt;">
			<path id="&lt;Path&gt;" class="s0" d="m160.8 377c15.3 1.8 38.7 5.2 50.6 5.7 0.3 0.1 0.6-0.2 0.7-0.5 0.1-0.4-0.1-0.7-0.5-0.8-5.7-2.1-13.5-3.3-20.4-4.7-0.2-0.1-0.3-0.2-0.3-0.4 0.1-0.1 0.2-0.2 0.4-0.2 7.7 1.1 16.6 1.8 18.6 1.9 12.9 1.2 15.9 5.4 36.2 7.8-0.1-3.8 5.7-8.9 20.1-2.3-7-10.6 7.6-7.9 22.7 0.2-0.9-3.7 3.9-5.7 8.1-2.2 2.1-5.5 17.3 0.3 7 3.2 25.6 7.6 35.5 0.6 57 1.7 0.1 0 0.3 0.1 0.3 0.3 0 0.2-0.2 0.3-0.3 0.3-6.2 0.4-14 1.4-21 3.2-5.8 1.6-19 1.2-33.8 2-8.5 0.5-17.6 1.4-26.2 3.2-23.4 5-52.7 2.2-63.7-2.8-1.4-0.7-2.6-1.2-3.7-1.7-7.5-3.5-9.1-4.1-21-6-11.2-1.7-17.5-4.3-31-7.1-0.2-0.1-0.3-0.3-0.3-0.5 0.1-0.2 0.3-0.4 0.5-0.3z"/>
			<ellipse id="&lt;Path&gt;" class="s1" cx="302.2" cy="381.2" rx="2.5" ry=".8"/>
			<path id="&lt;Path&gt;" class="s1" d="m291.3 381.3c0.8 0 1.4 0.3 1.4 0.7 0 0.4-0.6 0.7-1.4 0.7-0.8 0-1.4-0.3-1.4-0.7 0-0.4 0.6-0.7 1.4-0.7z"/>
			<ellipse id="&lt;Path&gt;" class="s1" cx="267.7" cy="378.8" rx="2.6" ry="1.2"/>
			<ellipse id="&lt;Path&gt;" class="s1" cx="252.4" cy="383.2" rx="4.4" ry="1.3"/>
			<path id="&lt;Path&gt;" class="s1" d="m328 389.2c3.6 0 6.5 0.1 6.5 0.3 0 0.2-2.9 0.3-6.5 0.3-3.6 0-6.5-0.1-6.5-0.3 0-0.2 2.9-0.3 6.5-0.3z"/>
			<path id="&lt;Path&gt;" class="s2" d="m235.7 391.1c9.1 7.1 19.8 1.1 39.5-0.3 17.2-1.2 16.8-3.4 31 1.4-8.5 0.5-17.6 1.4-26.2 3.2-23.4 5-52.7 2.2-63.7-2.8-1.4-0.7-2.6-1.2-3.7-1.7 11-0.3 16.4-5.1 23.1 0.2z"/>
		</g>
		<g id="&lt;Group&gt;">
			<g id="&lt;Group&gt;">
				<path id="&lt;Path&gt;" class="s0" d="m307.8 303.3q0 0 0 0 0 0 0 0c4.6 0.2 8.7 2.8 10.8 6.9 0.6-1.3 1.8-2.2 3.1-2.4 1.4-0.2 2.8 0.3 3.7 1.3 1.8-0.8 3.8-0.8 5.5 0 1.7 0.9 2.9 2.4 3.4 4.2 5.3-3.7 12.5-2.9 17 1.8 3.2-2.6 6.8-4.2 10.6-5q-0.3 0.4-0.4 0.9c-0.3 0.9-0.1 1.9 0.4 2.7-2.2 0.6-3.8 2.6-3.7 4.9 0.1 2.2 1.9 4.1 4.2 4.5 2.3 0.3 4.5-1 5.3-3.2 0.5 0.9 1.5 1.5 2.5 1.6 1.1 0 2.1-0.4 2.7-1.2 0.8 2.7 2.9 4.9 5.7 5.7 2.7 0.8 5.7 0.2 7.9-1.7 0.7 0.6 1.7 0.6 2.5 0.2 0.7-0.5 1.1-1.3 1-2.2 2.8 2.6 6.6 4 10.5 3.8 3.4-0.2 6.7-1.7 9.1-4.1 1.5 2.3 1.7 5.4 0.1 8-2.2 3.6-7 4.8-10.7 2.6-2.8 2.6-7.2 2.7-10.2 0.3-0.9 0.9-2 1.7-3.3 2.3-3 0-6-1.3-7.9-3.7-1.3 2.4-3.7 4.1-6.5 4.6-2.8 0.4-5.6-0.4-7.7-2.2-1 0.6-2.2 0.5-3.1-0.1-1-0.7-1.5-1.8-1.4-2.9-5.6 0.9-27.1 6-27.8-4.9-3.2 1.1-19.3 5.8-15.4-2.4-6.5-0.1-3.5-5.4 0.4-6.2-7.4 0.5-21-10.1-8.3-14.1z"/>
				<path id="&lt;Path&gt;" class="s3" d="m305.3 304c-5 5.2 1.3 10.9 6.1 9.4 0.3 2.9 3 4.2 7.1 2.3-2.5 2.5-6 6.6 0.3 6.9-1.6 7.6 9.7 4.6 13 1.9 1.6 6.3 8.3 8.3 13.8 5.9 3.2 2.3 11.6 0.6 14.7-1.5-0.7 3.8 2.1 4.8 4.5 2.9 2.9 4.4 10.8 3.8 12.7-3 2.6 5.1 3.7 5.5 5.4 6.3q-4.6-0.5-5.9-1.3-3.5 5.9-15.2 1.7c-13.9 0.1-34.3 3.7-45.2-3.3-5.6-3.7-21.9-21.5-11.3-28.2z"/>
				<path id="&lt;Path&gt;" class="s4" d="m271.8 310.1q1.2-1.2 2.7-2.2c-0.5 1.5-0.1 3.1 0.9 4.3 1.4 1.6 3.6 2.1 5.5 1.3 0.1 0.9 0.8 1.6 1.7 1.7 0.9 0 1.7-0.5 2-1.4 2.2 1.8 5.3 1.8 7.6 0.1 1.9-1.5 2.8-3.9 2.2-6.2q1 0.6 1.9 1.4c2.5-3.8 6.9-6.1 11.5-5.8-12.7 4 0.9 14.6 8.3 14.1-3.9 0.8-6.9 6.1-0.4 6.2-3.9 8.2 12.2 3.5 15.4 2.4 0.7 10.9 22.2 5.8 27.8 4.9-0.1 1.1 0.4 2.2 1.4 2.9 0.9 0.6 2.1 0.7 3.1 0.1 2.1 1.8 4.9 2.6 7.7 2.2 2.8-0.5 5.2-2.2 6.5-4.6 1.9 2.4 4.9 3.7 7.9 3.7-2.6 1.2-5.7 1.3-8.6 0.1-10.6 7-17.7 0.2-27.7 2.2-9.2 1.8-18.3 3.6-28.1 2.4-5.2-0.7-10-2.4-15.2-0.5q-0.7 0.3-1.8 0.5c-0.8-0.5-1.4-1.3-1.8-2.2-0.5-1.5-0.1-3.1 1-4.3-1.9 0.5-3.8 0-5.3-1.2-1.5-1.2-2.2-3-2.1-4.9-1 1.3-2.6 2.1-4.2 2-1.7-0.1-3.2-1.1-4-2.5-0.6 0.5-1.5 0.8-2.3 0.5-0.8-0.2-1.4-0.9-1.6-1.8-0.2-0.8 0.1-1.7 0.8-2.2-4.2 1.6-8.9 0.3-11.6-3.2-2.3-2.9-2.6-6.8-1.2-10z"/>
				<path id="&lt;Path&gt;" class="s0" d="m274.5 307.9q2.1-1.4 4.6-2.3c5.2-1.6 10.8-0.9 15.3 2.1 0.6 2.3-0.3 4.7-2.2 6.2-2.3 1.7-5.4 1.7-7.6-0.1-0.3 0.9-1.1 1.4-2 1.4-0.9-0.1-1.6-0.8-1.7-1.7-1.9 0.8-4.1 0.3-5.5-1.3-1-1.2-1.4-2.8-0.9-4.3z"/>
				<path id="&lt;Path&gt;" class="s3" d="m255.6 315.9c0.7-1.9 2.4-3.2 4.4-3.5 3.2 0.6 6 2.9 7.1 6.1 0.8-3.2 2.4-6.1 4.7-8.4-1.4 3.2-1.1 7.1 1.2 10 2.7 3.5 7.4 4.8 11.6 3.2-0.7 0.5-1 1.4-0.8 2.2 0.2 0.9 0.8 1.6 1.6 1.8 0.8 0.3 1.7 0 2.3-0.5 0.8 1.4 2.3 2.4 4 2.5 1.6 0.1 3.2-0.7 4.2-2-0.1 1.9 0.6 3.7 2.1 4.9 1.5 1.2 3.4 1.7 5.3 1.2-1.1 1.2-1.5 2.8-1 4.3 0.4 0.9 1 1.7 1.8 2.2-5.8 1-15.3 1.9-18.7-1.5-0.4-0.4-1.1-0.8-1.7-0.4-1.8 0.9-3.9 1.5-6 1.7-0.7-0.3-1.3-0.9-1.8-1.5-1-1.3-1.2-3.1-0.6-4.6-1.6 1.3-3.9 1.3-5.5-0.1-1.5-1.4-1.8-3.6-0.7-5.3-0.6 0-1.2-0.4-1.3-1-0.2-0.6 0.1-1.2 0.6-1.5-4.9 0-4.4-2.2-4-3-2.1 1.5-5 1.5-7.1-0.1-2-1.6-2.7-4.3-1.7-6.7z"/>
				<path id="&lt;Path&gt;" class="s0" d="m243.8 319.3c1.5-1.3 3.6-1.7 5.4-1 1.4-3.7 5-6.1 9-6.1q0.9 0 1.8 0.2c-2 0.3-3.7 1.6-4.4 3.5-1 2.4-0.3 5.1 1.7 6.7 2.1 1.6 5 1.6 7.1 0.1-0.4 0.8-0.9 3 4 3-0.5 0.3-0.8 0.9-0.6 1.5 0.1 0.6 0.7 1 1.3 1-1.1 1.7-0.8 3.9 0.7 5.3 1.6 1.4 3.9 1.4 5.5 0.1-0.6 1.5-0.4 3.3 0.6 4.6 0.5 0.6 1.1 1.2 1.8 1.5-2.6 0.2-5.4-0.3-7.8-1.5-2.3-0.5-4.2-2-5.2-4-1.1-2-1.1-4.4-0.1-6.5-4.9 2.8-12.6 2.8-17.6 0.1-2-0.1-3.7-1.4-4.4-3.2-0.7-1.9-0.2-3.9 1.2-5.3z"/>
				<path id="&lt;Path&gt;" class="s1" d="m361.9 313.7c-0.5-0.8-0.7-1.8-0.4-2.7q0.1-0.5 0.4-0.9c8.2-1.6 16.8 1 22.7 6.9 0.9-1.1 2.3-1.6 3.7-1.3 1.4 0.3 2.5 1.2 2.9 2.6 4.4-3.4 12.1-2.8 15.9 1.2 1.1 0.7 1.9 1.5 2.5 2.5-2.4 2.4-5.7 3.9-9.1 4.1-3.9 0.2-7.7-1.2-10.5-3.8 0.1 0.9-0.3 1.7-1 2.2-0.8 0.4-1.8 0.4-2.5-0.2-2.2 1.9-5.2 2.5-7.9 1.7-2.8-0.8-4.9-3-5.7-5.7-0.6 0.8-1.6 1.2-2.7 1.2-1-0.1-2-0.7-2.5-1.6-0.8 2.2-3 3.5-5.3 3.2-2.3-0.4-4.1-2.3-4.2-4.5-0.1-2.3 1.5-4.3 3.7-4.9z"/>
				<ellipse id="&lt;Path&gt;" class="s5" cx="367.2" cy="312" rx="3.8" ry=".9"/>
				<path id="&lt;Path&gt;" class="s5" d="m387 317c0.6 0 1 0.2 1.1 0.5 0 0.3-0.4 0.6-1 0.7-0.5 0-1-0.2-1-0.5-0.1-0.3 0.4-0.6 0.9-0.7z"/>
				<ellipse id="&lt;Path&gt;" class="s5" cx="397.3" cy="318.3" rx="3.1" ry="1"/>
				<ellipse id="&lt;Path&gt;" class="s1" cx="339.5" cy="313.6" rx="3.2" ry="1.1"/>
				<path id="&lt;Path&gt;" class="s1" d="m327.8 310.3c0.5 0 0.9 0.1 0.9 0.3 0 0.2-0.4 0.4-0.8 0.4-0.5 0-0.9-0.1-0.9-0.3 0-0.2 0.4-0.4 0.8-0.4z"/>
				<ellipse id="&lt;Path&gt;" class="s1" cx="311.4" cy="306.6" rx="2.6" ry="1.2"/>
				<path id="&lt;Path&gt;" class="s1" d="m393.7 331.2c-0.3 0.9-1.1 1.5-2.1 1.5-1 0-1.8-0.7-2-1.6-2 1.4-4.8 1.2-6.7-0.4-0.8 0.4-1.8 0-2.1-0.8-0.4-0.8-0.1-1.7 0.7-2.1 0.8-0.4 1.8-0.1 2.2 0.6 1.2-1.2 2.9-1.8 4.6-1.7 1.7 0.1 3.2 0.9 4.3 2.2 0.8 0.4 1.3 1.4 1.1 2.3z"/>
				<path id="&lt;Path&gt;" class="s1" d="m348.2 318.3c1.1-0.2 2.3 0.2 3.1 1.1 0.7 0.9 0.9 2.1 0.4 3.2 1.5-1.2 3.7-1 4.9 0.4 1.3 1.4 1.2 3.5-0.3 4.8-3.7 1.8-8.1 1.1-11.1-1.8 0 1.4-1.2 2.5-2.6 2.5-1.4-0.1-2.5-1.2-2.5-2.5-0.8 0.8-2.1 0.9-3 0.3-0.9-0.7-1.2-1.9-0.6-2.8 0.8-1.6 2.3-2.8 4-3.4 1.7-0.5 3.6-0.4 5.2 0.4 0.3-1.1 1.3-2 2.5-2.2z"/>
				<path id="&lt;Path&gt;" class="s5" d="m374.5 317.8c-0.3 0.7-1 1.2-1.8 1.2-0.8 0.1-1.6-0.3-2.1-0.9-0.6-0.1-1.1-0.6-1.3-1.2-0.1-0.6 0.1-1.3 0.6-1.7 0.6-0.4 1.2-0.4 1.8-0.1 0.3-0.2 0.6-0.3 0.9-0.1 0-0.5 0.4-0.9 0.9-1.1 0.4-0.1 1 0 1.3 0.4 0.3 0.4 0.4 0.9 0.2 1.3 0.4-0.2 0.8-0.1 1.1 0.1 0.4 0.2 0.5 0.6 0.4 1 0.4 0 0.6 0.2 0.8 0.4 0.2 0.3 0.2 0.6 0.1 0.9 0.4-0.1 0.9 0 1.2 0.3 0.3 0.4 0.4 0.9 0.2 1.3-0.1 0.4-0.6 0.7-1 0.7-1.5 0-2.8-1-3.1-2.5 0 0-0.1 0-0.2 0z"/>
				<path id="&lt;Path&gt;" class="s2" d="m297.7 318.6c-1.1 1.5-5.8 4.9-11.5 0.6-0.2 0.5-1.9 1.2-3.8 0.2q-3.1 1.9-4.8 0.2c-6.4 0.3-2.9-6.7-1.7-4.4 1.3 2.2 7 4.5 10.3 1.7 2.5 3.1 8.3 4 11.2-0.5 1.2 1.6 6.4 6.6 13.9 2.5-4.1 3.3-10.6 2.3-13.6-0.3z"/>
				<path id="&lt;Path&gt;" class="s6" d="m308.5 331.1c-1.5 0.9-6.3 1.9-8.7-3 1.5 3.1 7.5 2.8 9.1-0.4 2.5 5.9 10.4 7.1 15.1 3.2-3.9 4.8-11.2 4.3-15.5 0.2z"/>
				<path id="&lt;Path&gt;" class="s2" d="m340.8 333.8c-3.1 2.6-9.7 1.5-11.3-2.2 0.5 4.4 5.7 7.8 11.3 2.2z"/>
				<path id="&lt;Path&gt;" class="s6" d="m312.1 327.4c-1.2 1-3.8 0.5-4.4-1 0.2 1.7 2.2 3.1 4.4 1z"/>
				<path id="&lt;Path&gt;" class="s2" d="m302.1 315.6c-2.1 1.7-6.5 0.9-7.6-1.7 0.3 3 3.8 5.5 7.6 1.7z"/>
				<path id="&lt;Path&gt;" class="s3" d="m322.5 314.1c-3.2 1.3-5.1 1.5-6.8-1.1 1.7 5.3 3.8 3.8 6.8 1.1z"/>
				<path id="&lt;Path&gt;" class="s3" d="m313 312.7c-1.6 0.5-2.9 0.2-4.3-1.3 1.8 3 2.9 2.9 4.3 1.3z"/>
				<path id="&lt;Path&gt;" class="s3" d="m333.3 324.3c-2.2 0.4-2.8-0.8-3.3-1.3 0.6 2.4 2 2.3 3.3 1.3z"/>
				<path id="&lt;Path&gt;" class="s3" d="m363.4 328.7c-3.1 0.6-4.4-0.5-5.3-1.6 0.4 3 3.5 2.6 5.3 1.6z"/>
				<path id="&lt;Path&gt;" class="s3" d="m367.5 330.9c-2.4 0.7-2.9 0.5-4.2-0.5 0.8 2.2 1.4 2.4 4.2 0.5z"/>
				<path id="&lt;Path&gt;" class="s3" d="m373.7 327.9q-5.3 2.4-7.1-1.9c2 3.1 4.8 1.5 6.9 0.7 1.6 1.7 3.5 2 5.9 1.5q-2.6 2.9-5.7-0.3z"/>
				<path id="&lt;Path&gt;" class="s0" d="m393.9 321.3c-3.2 0.9-6.4 0.8-9-0.9 5.3 4 7.7 2.9 9 0.9z"/>
				<path id="&lt;Path&gt;" class="s0" d="m369.3 318.9c-2.3 1-3.5 0.7-4.8-0.4 1.9 3.1 2.8 2.7 4.8 0.4z"/>
				<path id="&lt;Path&gt;" class="s3" d="m286.9 321.8c-2.7 1.9-4.5 0.9-6-0.2 2.9 5 6 0.1 6 0.2z"/>
				<path id="&lt;Path&gt;" class="s3" d="m304.8 333.6c-2.1 0.1-2.7-1-3.2-2-0.1 3.6 3.2 1.9 3.2 2z"/>
				<path id="&lt;Path&gt;" class="s3" d="m293.2 325.9q-2.3 2.1-3.6-1.7c1.1 1.7 2.3 1.3 4.1 0.9 1.1 1.5 2.8 2.2 6.2 0.6q-4.5 4.3-6.7 0.2z"/>
				<path id="&lt;Path&gt;" class="s0" d="m279.2 333.4c-2.5 0.3-4.6 0.8-5.8-2.9 0.7 4.7 2.1 4.2 5.8 2.9z"/>
				<path id="&lt;Path&gt;" class="s0" d="m263.1 320.8c1.8 1.9 1.9 2.6 4.2 2.2 1.4 1.1 1.9 2.5 4.2 1.9-2.3 1-4-0.5-4.2-1.3-2.2 1.2-4.2-0.4-4.2-2.8z"/>
				<path id="&lt;Path&gt;" class="s4" d="m288.7 332.8q-7.9 2-9.7-4.1-0.9 1.3-3-0.4c-2.2-1.7 2-4.8 3.4-0.6 1.4 4.1 7.3 5.3 10 4.1 1.1 3.5 3.8 4.6 8.2 3.4-3.2 1.5-7.7 2.2-8.9-2.4z"/>
				<ellipse id="&lt;Path&gt;" class="s4" cx="274.7" cy="326.2" rx="1.6" ry="1.5"/>
				<ellipse id="&lt;Path&gt;" class="s7" cx="330.4" cy="339.4" rx="4.1" ry=".7"/>
				<path id="&lt;Path&gt;" class="s7" d="m367.1 336.8c2.2-0.2 4.1 0 4.1 0.4 0 0.4-1.8 0.8-4.1 0.9-2.2 0.2-4.1 0-4.1-0.4 0-0.4 1.8-0.8 4.1-0.9z"/>
				<path id="&lt;Path&gt;" class="s3" d="m305.2 337.9c0.7 0 1.2 0.2 1.2 0.4 0 0.3-0.5 0.5-1.1 0.5-0.7 0-1.2-0.2-1.2-0.4 0-0.3 0.5-0.5 1.1-0.5z"/>
				<path id="&lt;Path&gt;" class="s0" d="m295.8 339.3c2-0.1 3.6 0.1 3.6 0.3 0 0.2-1.6 0.4-3.6 0.4-2 0-3.6-0.1-3.6-0.3 0-0.2 1.6-0.4 3.6-0.4z"/>
				<path id="&lt;Path&gt;" class="s0" d="m278.4 338.3c0.7 0 1.3 0.1 1.3 0.3 0 0.2-0.6 0.3-1.3 0.3-0.7 0-1.3-0.1-1.3-0.3 0-0.1 0.6-0.3 1.3-0.3z"/>
				<ellipse id="&lt;Path&gt;" class="s1" cx="254.2" cy="328.1" rx="3.6" ry=".8"/>
				<path id="&lt;Path&gt;" class="s1" d="m245.6 325.9c0.4 0 0.8 0.2 0.8 0.5 0 0.3-0.4 0.5-0.9 0.5-0.4 0-0.8-0.2-0.8-0.5 0-0.3 0.4-0.6 0.9-0.5z"/>
				<ellipse id="&lt;Path&gt;" class="s7" cx="403.8" cy="331.2" rx="2.6" ry="1"/>
				<path id="&lt;Path&gt;" class="s5" d="m339.1 313.1c1.1 0 2 0 2 0.2 0 0.1-0.9 0.3-1.9 0.4-1.1 0-2-0.1-2-0.2 0-0.2 0.9-0.4 1.9-0.4z"/>
				<ellipse id="&lt;Path&gt;" class="s1" cx="284.7" cy="307" rx="5.5" ry="1.1"/>
				<path id="&lt;Path&gt;" class="s5" d="m284.2 306.5c1.8 0 3.3 0.1 3.3 0.3 0 0.1-1.4 0.2-3.2 0.2-1.9 0-3.4-0.2-3.4-0.3 0-0.2 1.5-0.3 3.3-0.2z"/>
				<path id="&lt;Path&gt;" class="s5" d="m348.6 319.1c0.9-0.1 1.6 0.1 1.6 0.4 0 0.3-0.7 0.6-1.5 0.6-0.9 0.1-1.6-0.1-1.6-0.4 0-0.3 0.7-0.6 1.5-0.6z"/>
				<ellipse id="&lt;Path&gt;" class="s5" cx="341.1" cy="321.3" rx="2.2" ry=".6"/>
				<path id="&lt;Path&gt;" class="s5" d="m353.5 322.6c0.9 0 1.6 0.1 1.6 0.2 0 0.2-0.7 0.4-1.6 0.4-0.9 0-1.6 0-1.6-0.2 0-0.1 0.7-0.3 1.6-0.4z"/>
				<path id="&lt;Path&gt;" class="s5" d="m387.2 327.3c1.1 0 2 0.1 2 0.3 0 0.2-0.8 0.5-1.9 0.6-1.1 0.1-2-0.1-2-0.3-0.1-0.2 0.8-0.5 1.9-0.6z"/>
			</g>
			<g id="&lt;Group&gt;">
				<path id="&lt;Path&gt;" class="s0" d="m145.5 303.4c-1.2-6.3 3-12.1 9.4-13.2q0 0 0 0 0 0 0.1 0.1c7.8 1.2 14.5 6.5 17.4 13.8 1.2-2.1 3.4-3.4 5.8-3.5 2.4-0.2 4.7 0.9 6.2 2.8 3.1-1 6.5-0.7 9.3 1 2.8 1.7 4.8 4.5 5.3 7.7 9.3-5.3 22.6-3.3 29.1 5.7 6.1-3.4 12-6.4 19.1-7.1q-0.5 0.7-0.7 1.4c-0.6 1.6-0.5 3.3 0.3 4.8-4 0.7-6.9 4-7.1 7.9-0.1 4 2.7 7.5 6.6 8.4 4 0.8 8-1.1 9.7-4.8 0.8 1.7 2.3 2.8 4.2 3 1.8 0.3 3.6-0.3 4.9-1.7 0.9 4.9 4.4 8.9 9.1 10.6 4.7 1.8 10 1.1 14-1.9 1.2 1 2.9 1.2 4.3 0.5 1.4-0.7 2.2-2.1 2.1-3.6 4 4.6 11.9 7.6 17.8 7.6 5.3 0 12.4-2.4 16.4-6.2 2.4 4.2 2.4 9.7-0.6 13.9-4.4 6-12.8 7.5-19.1 3.5-5.3 4.2-12.8 3.9-17.8-0.7-1.8 1.6-3.8 2.8-6 3.6-5.4-0.2-10.4-2.9-13.5-7.2-2.6 3.9-7 6.6-11.9 7-4.9 0.5-9.8-1.3-13.2-4.7-1.8 0.8-4 0.5-5.6-0.7-1.5-1.2-2.2-3.2-1.8-5.1-9.4 0.7-49.6 6.3-48-12.8-6.6 2-17.6 5.8-24.2 1.4-3.2-2-6.1-4.7-2.2-8-10.7 0-4.5-9.8 1.8-10.7-7.6-0.3-19.4-4-21.2-12.8z"/>
				<path id="&lt;Path&gt;" class="s3" d="m150.5 291.1c-9.1 7.1-0.5 18.4 8.8 17.3 0 5 4.6 7.7 12 5.2-4.1 3.3-10.9 11.4-0.7 12-6.8 12.3 17.3 9.2 22.3 5.6 1.6 10.8 13.4 15.7 23.1 12.2 7 4.9 18.6 3 25.9-0.4-1.7 6.4 3 8.5 7.5 5.6 5.5 9.7 19.3 5.8 22.6-3.5 3.9 9 5.8 9.9 8.6 11.5q-8-1.5-10-3c-6.5 7.5-19.5 4.8-27 1-14.8-1.1-29.6-1.7-44.2-3.5-11-1.4-26-2.2-34.4-9.4-8.1-6.8-35-42.7-14.5-50.6z"/>
				<path id="&lt;Path&gt;" class="s4" d="m91.6 294.9q2.4-1.8 5-3.2c-1 2.5-0.8 5.4 0.8 7.7 2 3 5.8 4.3 9.2 3.3-0.1 1.5 1 2.9 2.6 3.2 1.5 0.4 3.1-0.5 3.6-1.9 3.5 3.5 9 4.2 13.2 1.7 3.7-2.2 5.6-6.3 5.1-10.4q1.6 1.4 3 2.9c5-6.1 13-9.1 20.8-8-6.4 1.1-10.6 6.9-9.4 13.2 1.8 8.8 13.6 12.5 21.2 12.8-6.3 0.9-12.5 10.7-1.8 10.7-3.9 3.3-1 6 2.2 8 6.6 4.4 17.6 0.6 24.2-1.4-1.6 19.1 38.6 13.5 48 12.8-0.4 1.9 0.3 3.9 1.8 5.1 1.6 1.2 3.8 1.5 5.6 0.7 3.4 3.4 8.3 5.2 13.2 4.7 4.9-0.4 9.3-3.1 11.9-7 3.1 4.3 8.1 7 13.5 7.2-4.8 1.8-10.3 1.7-15.1-0.7-10.1 4.4-18.7 6.5-29.5 4-6.4-1.5-12.5-5.3-19.4-4.1-16.8 2.9-33.1 3.8-49.7-0.3-8.9-2.3-17.3-5.9-26.5-3.5-0.8 0.2-1.9 0.4-3.2 0.5-1.4-1-2.4-2.5-2.8-4.1-0.6-2.7 0.3-5.5 2.5-7.3-3.3 0.4-6.7-0.7-9-3.1-2.3-2.4-3.4-5.7-2.8-8.9-1.9 2.1-4.8 3.2-7.7 2.6-2.9-0.5-5.3-2.5-6.3-5.1-1.2 0.9-2.8 1-4.2 0.4-1.4-0.6-2.4-1.9-2.5-3.3-0.1-1.5 0.6-2.9 1.9-3.7-7.5 1.8-15.4-1.5-19.5-8-3-4.8-3.1-12.7 0.1-17.5z"/>
				<path id="&lt;Path&gt;" class="s3" d="m96.6 291.7c2.7-1.3 5.6-2.5 8.4-2.9 9.8-1.4 17.3 0.8 26.1 6.5 0.5 4.1-1.4 8.2-5.1 10.4-4.2 2.5-9.7 1.8-13.2-1.7-0.5 1.4-2.1 2.3-3.6 1.9-1.6-0.3-2.7-1.7-2.6-3.2-3.4 1-7.2-0.3-9.2-3.3-1.6-2.3-1.8-5.2-0.8-7.7z"/>
				<path id="&lt;Path&gt;" class="s3" d="m62.2 301.3c1.8-3 5-4.9 8.5-5 5.1 1.5 10 6.9 11 12.1 1.7-4.9 5.7-10.4 9.9-13.5-3.2 4.8-3.1 12.7-0.1 17.5 4.1 6.5 12 9.8 19.5 8-1.3 0.8-2 2.2-1.9 3.7 0.1 1.4 1.1 2.7 2.5 3.3 1.4 0.6 3 0.5 4.2-0.4 1 2.6 3.4 4.6 6.3 5.1 2.9 0.6 5.8-0.5 7.7-2.6-0.6 3.2 0.5 6.5 2.8 8.9 2.3 2.4 5.7 3.5 9 3.1-2.2 1.8-3.1 4.6-2.5 7.3 0.4 1.6 1.4 3.1 2.8 4.1-9.4 0.7-27.7 0.6-32.6-6.4-0.5-0.7-1.7-1.4-2.8-1-3.4 1.3-7.1 1.9-10.8 1.7-1.2-0.7-2.3-1.7-3-3-1.4-2.5-1.4-5.5 0-8-3.1 1.9-7.2 1.3-9.6-1.4-2.4-2.6-2.4-6.6-0.1-9.3-1.1-0.1-1.9-0.9-2.1-1.9-0.1-1.1 0.5-2.1 1.5-2.5-8.6-1.1-7.2-4.8-6.4-6-4 2.1-9 1.3-12.2-1.9-3.2-3.2-3.8-8-1.6-11.9z"/>
				<path id="&lt;Path&gt;" class="s0" d="m41.1 304.5c2.8-2 6.6-2.2 9.6-0.5 3.4-6 10.2-9.3 17-8.4q1.5 0.2 3 0.7c-3.5 0.1-6.7 2-8.5 5-2.2 3.9-1.6 8.7 1.6 11.9 3.2 3.2 8.2 4 12.2 1.9-0.8 1.2-2.2 4.9 6.4 6-1 0.4-1.6 1.4-1.5 2.5 0.2 1 1 1.8 2.1 1.9-2.3 2.7-2.3 6.7 0.1 9.3 2.4 2.7 6.5 3.3 9.6 1.4-1.4 2.5-1.4 5.5 0 8 0.7 1.3 1.8 2.3 3 3-4.8-0.2-9.4-1.6-13.5-4.3-3.9-1.3-6.9-4.3-8.3-8-1.3-3.7-0.8-7.8 1.4-11.1-9.9 3.2-21.9 2.3-30.6-4-3.5-0.6-6.2-3.2-7-6.6-0.7-3.3 0.6-6.7 3.4-8.7z"/>
				<path id="&lt;Path&gt;" class="s1" d="m246.8 316.9c-0.8-1.5-0.9-3.2-0.3-4.8q0.2-0.7 0.7-1.4c14.4-1.7 29 3.9 38.5 14.8 1.7-1.8 4.2-2.5 6.6-1.9 2.4 0.6 4.2 2.5 4.8 4.8 8.5-5.3 21-4 27.6 3.9 1.7 1.2 3.1 2.7 4.1 4.4-4 3.8-11.1 6.2-16.4 6.2-5.9 0-13.8-3-17.8-7.6 0.1 1.5-0.7 2.9-2.1 3.6-1.4 0.7-3.1 0.5-4.3-0.5-4 3-9.3 3.7-14 1.9-4.7-1.7-8.2-5.7-9.1-10.6-1.3 1.4-3.1 2-4.9 1.7-1.9-0.2-3.4-1.3-4.2-3-1.7 3.7-5.7 5.6-9.7 4.8-3.9-0.9-6.7-4.4-6.6-8.4 0.2-3.9 3.1-7.2 7.1-7.9z"/>
				<ellipse id="&lt;Path&gt;" class="s5" cx="256.1" cy="314.7" rx="6.7" ry="1.5"/>
				<ellipse id="&lt;Path&gt;" class="s5" cx="290" cy="326.8" rx="1.7" ry="1"/>
				<ellipse id="&lt;Path&gt;" class="s5" cx="307.8" cy="329.2" rx="5.5" ry="1.7"/>
				<ellipse id="&lt;Path&gt;" class="s1" cx="207.9" cy="313.4" rx="5.6" ry="1.9"/>
				<path id="&lt;Path&gt;" class="s1" d="m188.3 305.9c0.8 0 1.5 0.4 1.4 0.7 0 0.3-0.7 0.6-1.5 0.5-0.8 0-1.4-0.4-1.4-0.7 0-0.3 0.7-0.6 1.5-0.5z"/>
				<ellipse id="&lt;Path&gt;" class="s1" cx="160.6" cy="296.7" rx="4.5" ry="2.1"/>
				<path id="&lt;Path&gt;" class="s1" d="m300 351.1c-0.5 1.5-2.1 2.5-3.8 2.4-1.7-0.1-3.1-1.4-3.3-3-3.8 2.1-8.5 1.5-11.7-1.5-1.5 0.5-3.1-0.2-3.7-1.6-0.5-1.4 0.2-3 1.6-3.6 1.5-0.6 3.1 0 3.8 1.4 2.2-1.9 5.2-2.9 8.1-2.5 3 0.3 5.6 1.9 7.3 4.3 1.5 0.8 2.2 2.5 1.7 4.1z"/>
				<path id="&lt;Path&gt;" class="s1" d="m222.3 322.9c2-0.2 4.1 0.7 5.2 2.3 1.2 1.7 1.4 3.9 0.4 5.7 2.7-1.8 6.4-1.2 8.4 1.4 2 2.6 1.5 6.3-1.1 8.2-6.8 2.5-14.4 0.7-19.2-4.7-0.3 2.4-2.5 4.1-4.9 3.8-2.5-0.2-4.3-2.3-4.1-4.7-1.4 1.3-3.6 1.4-5.1 0.1-1.5-1.2-1.8-3.4-0.7-4.9 1.7-2.7 4.4-4.5 7.5-5.2 3.1-0.7 6.3-0.1 9 1.5 0.7-1.9 2.5-3.3 4.6-3.5z"/>
				<path id="&lt;Path&gt;" class="s5" d="m268.2 325.7c-0.8 1.2-2.1 1.9-3.5 1.9-1.3 0-2.6-0.8-3.3-2-1.1-0.2-2-1.1-2.1-2.2-0.2-1.1 0.3-2.2 1.2-2.8 1-0.6 2.2-0.6 3.1 0 0.5-0.4 1.1-0.4 1.6 0 0.1-0.9 0.7-1.6 1.6-1.8 0.8-0.2 1.7 0.1 2.3 0.8 0.5 0.7 0.6 1.6 0.1 2.4 0.7-0.3 1.4-0.2 2 0.2 0.5 0.5 0.8 1.2 0.6 1.8 0.5 0.1 1 0.4 1.3 0.8 0.3 0.5 0.3 1.1 0 1.5 0.8-0.1 1.6 0.2 2.1 0.8 0.5 0.6 0.6 1.4 0.2 2.1-0.3 0.7-1.1 1.2-1.9 1.1-2.6-0.1-4.6-2.1-5-4.6-0.1 0-0.2 0-0.3 0z"/>
				<path id="&lt;Path&gt;" class="s2" d="m134.7 314.9c-5.4 5.3-15.1 4.3-20.1-1.3-0.5 0.9-3.6 1.7-6.6-0.4q-5.9 2.7-8.4-0.6c-11.2-1-3.8-11.7-2-8 2.8 5.5 11.5 8.3 17.4 5 4.8 6.7 14 7.6 19.5 1.4 4.8 7.6 15.4 11 23.7 7-7.1 3.9-17.7 3-23.5-3.1z"/>
				<path id="&lt;Path&gt;" class="s2" d="m151.2 338.5c-5.7 2.1-13-0.7-14.7-6.9 3.2 6 11.9 5.9 16 1 2.3 10.6 17.7 14.2 25.8 8.2-7.1 7.8-21 5.4-27.1-2.3z"/>
				<path id="&lt;Path&gt;" class="s2" d="m207.1 348.7c-6.7 3.5-16.1 1.2-19.4-5.8 1 11.8 11.8 10.1 19.4 5.8z"/>
				<path id="&lt;Path&gt;" class="s2" d="m158.1 332.7c-2.3 1.4-6.7 0.2-7.5-2.5 0 3 3.2 5.8 7.5 2.5z"/>
				<path id="&lt;Path&gt;" class="s2" d="m142.9 310.6c-4 2.5-11.5 0.1-12.8-4.5 0 7.2 8 8.8 12.8 4.5z"/>
				<path id="&lt;Path&gt;" class="s3" d="m178.4 311.6c-5.6 1.6-9 1.7-11.5-3.1 1.9 9.4 5.9 7.3 11.5 3.1z"/>
				<path id="&lt;Path&gt;" class="s3" d="m162.3 307.5c-3 0.6-5.1-0.1-7.2-3.1 2.4 5.6 4.4 5.6 7.2 3.1z"/>
				<path id="&lt;Path&gt;" class="s3" d="m195.6 331.1c-4 0.2-4.8-2-5.7-2.9 0.8 4.3 3.2 4.4 5.7 2.9z"/>
				<path id="&lt;Path&gt;" class="s3" d="m247.3 343.1c-5.4 0.7-7.6-1.6-9-3.6 0.2 5.3 5.8 5 9 3.6z"/>
				<path id="&lt;Path&gt;" class="s3" d="m254.3 347.4c-4.4 0.9-5.2 0.4-7.3-1.4 1 3.9 2 4.3 7.3 1.4z"/>
				<path id="&lt;Path&gt;" class="s3" d="m265.5 343q-9.7 3.5-12.3-4.2c3.2 5.6 8.2 3.2 12.1 2.2 2.4 3 5.8 3.9 10.1 3.2q-4.9 4.7-9.9-1.2z"/>
				<path id="&lt;Path&gt;" class="s0" d="m301.5 334c-5.7 1.2-11.4 0.7-15.6-2.6 3.9 3.9 11.3 7.9 15.6 2.6z"/>
				<path id="&lt;Path&gt;" class="s0" d="m258.9 326.9c-4.2 1.4-6.1 0.7-8.2-1.3 2.8 5.5 4.5 5 8.2 1.3z"/>
				<path id="&lt;Path&gt;" class="s3" d="m115.3 318.2c-5.2 2.7-8 0.6-10.3-1.6 3.8 9.4 10.3 1.5 10.3 1.6z"/>
				<path id="&lt;Path&gt;" class="s3" d="m144.2 342c-3.7-0.1-4.6-2.1-5.2-3.9-0.8 6.1 5.2 3.9 5.2 3.9z"/>
				<path id="&lt;Path&gt;" class="s3" d="m125.4 326.6q-4.4 3.2-5.9-3.7c1.6 3.2 3.7 2.7 7 2.4 1.5 2.8 4.4 4.4 10.6 2.2q-8.5 6.6-11.7-0.9z"/>
				<path id="&lt;Path&gt;" class="s0" d="m99.4 336.6c-4.3 0.1-8 0.4-9.4-6.1 0.3 8.2 2.9 7.6 9.4 6.1z"/>
				<path id="&lt;Path&gt;" class="s0" d="m74.2 311.5c2.6 3.6 2.8 4.9 6.9 4.7 2.1 2.2 2.6 4.7 6.8 4.2-4.2 1.2-6.8-1.7-7-3.3-4.1 1.7-7.3-1.5-6.7-5.6z"/>
				<path id="&lt;Path&gt;" class="s4" d="m116.3 337.6c-7 1.2-14.4-1.9-16.2-9.2q-1.7 2.2-5.2-1.2c-3.4-3.3 4.4-7.5 6.2-0.4 1.7 6.6 9.8 10.7 16.6 9.2 0.9 6.8 7.7 8.7 13.5 7.4-5.6 2.2-14 2-14.9-5.8z"/>
				<ellipse id="&lt;Path&gt;" class="s4" cx="93.2" cy="323.3" rx="2.9" ry="2.6"/>
				<ellipse id="&lt;Path&gt;" class="s7" cx="188" cy="356.6" rx="7.2" ry="1.3"/>
				<ellipse id="&lt;Path&gt;" class="s7" cx="248.1" cy="358.9" rx="7.2" ry="1.2"/>
				<ellipse id="&lt;Path&gt;" class="s3" cx="144.1" cy="350.4" rx="2" ry=".8"/>
				<path id="&lt;Path&gt;" class="s7" d="m127.4 350.2c3.5 0.3 6.3 0.9 6.3 1.2-0.1 0.4-2.9 0.4-6.4 0-3.5-0.3-6.3-0.9-6.3-1.2 0.1-0.4 2.9-0.4 6.4 0z"/>
				<ellipse id="&lt;Path&gt;" class="s7" cx="97" cy="345.5" rx="2.3" ry=".6"/>
				<path id="&lt;Path&gt;" class="s1" d="m57.4 320.7c3.4 0.6 6.1 1.5 6 2.3-0.1 0.7-3 0.9-6.4 0.4-3.5-0.5-6.2-1.5-6.1-2.3 0.1-0.7 3-0.9 6.5-0.4z"/>
				<ellipse id="&lt;Path&gt;" class="s1" cx="42.4" cy="317" rx="1.5" ry=".9"/>
				<ellipse id="&lt;Path&gt;" class="s7" cx="317.8" cy="352.1" rx="4.6" ry="1.7"/>
				<ellipse id="&lt;Path&gt;" class="s5" cx="207.4" cy="313" rx="3.3" ry=".5"/>
				<ellipse id="&lt;Path&gt;" class="s5" cx="222.9" cy="325.2" rx="2.7" ry=".9"/>
				<ellipse id="&lt;Path&gt;" class="s5" cx="209.6" cy="327" rx="3.8" ry="1.1"/>
				<ellipse id="&lt;Path&gt;" class="s5" cx="230.9" cy="331.7" rx="2.8" ry=".5"/>
				<ellipse id="&lt;Path&gt;" class="s5" cx="289.1" cy="344.4" rx="3.5" ry=".7"/>
			</g>
		</g>
		<g id="&lt;Group&gt;">
			<path id="&lt;Path&gt;" class="s1" d="m679.2 352.5c2.6-1 5.5-0.1 7.1 2.2 1.1-2 3.6-2.7 5.6-1.7-9.1-18.3 12.8-24.7 25.6-13-26.6-11-22.4 6.6-15.9 10.5-1-0.5-2.2-0.4-3.2 0.2-1 0.5-1.6 1.6-1.7 2.7-0.6 0.2-1.1 0.7-1.3 1.3-0.3 0.6-0.2 1.3 0.1 1.8-1.6-0.8-3.5-0.7-5 0.2-1.6 0.8-2.7 2.4-2.8 4.2-0.5-2.9-2.7-5.1-5.5-5.7-2.8-0.5-5.7 0.9-7.1 3.5-0.1-2.8 1.5-5.3 4.1-6.2z"/>
			<path id="&lt;Path&gt;" class="s0" d="m643.3 367.9c7.2 0.3 15.6 0.2 20.3-2.6 0-2.8 1.4-5.3 3.8-6.7 2.4-1.3 5.4-1.3 7.7 0.1 1.4-2.6 4.3-4 7.1-3.5 2.8 0.6 5 2.8 5.5 5.7 0.1-1.8 1.2-3.4 2.8-4.2 1.5-0.9 3.4-1 5-0.2-0.3-0.5-0.4-1.2-0.1-1.8 0.2-0.6 0.7-1.1 1.3-1.3 0.1-1.1 0.7-2.2 1.7-2.7 1-0.6 2.2-0.7 3.2-0.2-6.5-3.9-10.7-21.5 15.9-10.5 4 3.5 7.1 8.8 8.1 16 2.8-1.9 6.5-1.7 9 0.5 2.6 2.1 3.3 5.8 1.8 8.8 2.6-0.5 4.9-0.6 6.9-0.4 8.2 5.5 3.9 9-8.7 5-4.8 1.9-11-1.9-19.8-0.7 5.9 2 0.9 2.9-6.1 1.2 2.7 2.3-23.3-2.3-29.5-0.1 6.8 1.8 1.9 2.3-11.7 0.5-7.6 1-20.5 2.2-17.9-0.1-8.1 0.2-22.7 1.3-6.3-2.8z"/>
			<path id="&lt;Path&gt;" class="s2" d="m591.1 373.5c5.5-0.4 17.9-1.2 27.1-1.2 12.3 0 15.9-1.9 12.5-4.4-1.8-1.4 4.7-0.4 12.6 0-16.4 4.1-1.8 3 6.3 2.8-2.6 2.3 10.3 1.1 17.9 0.1 13.6 1.8 18.5 1.3 11.7-0.5 6.2-2.2 32.2 2.4 29.5 0.1 7 1.7 12 0.8 6.1-1.2 8.8-1.2 15 2.6 19.8 0.7 12.6 4 16.9 0.5 8.7-5 7.1 0.8 10.2 5 7.9 6.6 6.9-0.5 8.4 0.9 10.4 2.1 0.7 0.4 0.4 1.5-0.4 1.5-6.4 0.4-8.5 2-18 1.1-11.5-1-28.9-2.9-44-0.8-15.1 2.1-48-1-54.4-1.2-6.3-0.2-34.8 3.6-53.7 0.1-0.5-0.1-0.5-0.8 0-0.8z"/>
			<ellipse id="&lt;Path&gt;" class="s1" cx="701.3" cy="339.2" rx="4.8" ry="1.6"/>
			<ellipse id="&lt;Path&gt;" class="s1" cx="678.8" cy="357.2" rx="2.7" ry="1.3"/>
			<ellipse id="&lt;Path&gt;" class="s1" cx="668.9" cy="359.9" rx="2.3" ry="1.2"/>
			<ellipse id="&lt;Path&gt;" class="s1" cx="729.2" cy="357.6" rx="3.6" ry="1.5"/>
			<ellipse id="&lt;Path&gt;" class="s1" cx="739.5" cy="366.2" rx="3" ry=".5"/>
			<ellipse id="&lt;Path&gt;" class="s1" cx="708.9" cy="344.5" rx="8.9" ry="2.2"/>
			<ellipse id="&lt;Path&gt;" class="s1" cx="713.4" cy="347.3" rx="7" ry="1.7"/>
			<ellipse id="&lt;Path&gt;" class="s1" cx="712.3" cy="358.7" rx="9.4" ry="2.7"/>
			<ellipse id="&lt;Path&gt;" class="s1" cx="702.3" cy="360.9" rx="7.3" ry="2.2"/>
		</g>
		<g id="&lt;Group&gt;">
			<path id="&lt;Path&gt;" class="s8" d="m546.6 150.2c-4.9 2.6-14.6 3.9-22.2 3.4 4.2 3.4-3.1 2.9-11.4 2.8-8.1-0.1-27.2-1.3-41.8-3.2-0.7-0.1-0.7-1 0-1.1q1.9-0.1 3.7-0.4c4.8-0.7 9-1.6 13.3-1.6-7.3-3.7-1-12.3 13.7-7.8 0.7-2.5 3-4.2 5.6-4.1 2.6 0.2 4.8 2.1 5.2 4.7 3.2-4.2 8.5-6.3 13.7-5.7 5.3 0.7 9.8 4.1 11.9 9 2.9-0.3 5.6 0.5 7.7 1.3q0.4 0.1 0.7 0.3c1.1 0.4 0.9 1.8-0.1 2.4z"/>
			<ellipse id="&lt;Path&gt;" class="s9" cx="526.3" cy="140.6" rx="4.9" ry="1.8"/>
			<ellipse id="&lt;Path&gt;" class="s9" cx="509.1" cy="141" rx="1.5" ry="1.1"/>
			<ellipse id="&lt;Path&gt;" class="s9" cx="495.9" cy="143.4" rx="5.4" ry=".8"/>
			<path id="&lt;Path&gt;" class="s9" d="m485.8 152c-2 0-3.6-0.1-3.6-0.4 0-0.2 1.6-0.4 3.6-0.4 2.1 0 3.7 0.2 3.7 0.4 0 0.3-1.6 0.4-3.7 0.4z"/>
			<ellipse id="&lt;Path&gt;" class="s9" cx="541.9" cy="147.6" rx="2.6" ry=".6"/>
			<path id="&lt;Path&gt;" class="s10" d="m546.6 150.2c-4.9 2.6-14.6 3.9-22.2 3.4 4.2 3.4-3.1 2.9-11.4 2.8-8.1-0.1-27.2-1.3-41.8-3.2-0.7-0.1-0.7-1 0-1.1q1.9-0.1 3.7-0.4c4.1 1.6 13.4 2.6 19.9 1.5 7.5-1.3 13.7-0.7 21.1 1.4 7.3 2.1 5-4.9 9.9-3.1 4.5 1.7 18.2-0.7 20.2-4q0.4 0.1 0.7 0.3c1.1 0.4 0.9 1.8-0.1 2.4z"/>
			<path id="&lt;Path&gt;" class="s10" d="m522.6 149.3c-2.8-1.8-3.1 4-6.3 2.2-3.2-1.8-5.1-3.5-7-2.9 3.6-1.5 3.9 2.1 9.1 0.4 5.2-1.8 4 0.7 9.1-1.2q-2.2 3.2-4.9 1.5z"/>
			<path id="&lt;Path&gt;" class="s9" d="m509.6 143.9c2-1.2 3.7-1.2 5.2 0.6-2.3-1-3.6-1.2-5.2-0.6z"/>
		</g>
		<g id="&lt;Group&gt;">
			<g id="&lt;Group&gt;">
				<path id="&lt;Path&gt;" class="s11" d="m340 188c-4.6 2.4-10.1 2.7-15 0.7-4.8-1.9-8.6-5.9-10.3-10.8-11.6 4.9-25.1-0.4-30.1-12-10.7 6.2-23.9 6.2-34.7 0-2.1 5.8-7.4 9.9-13.5 10.4-6.1 0.5-12-2.6-15-8-2.1-4.4-6.1-7.6-10.8-8.9-4.8-1.2-9.8-0.2-13.8 2.7-8.4-6.8-20.4-6.8-28.8 0q-2.1 1.5-4.2 2.8c-4.1-1.7-7.2-5.4-7.9-10.1-6 3.6-13.4 3.9-19.6 0.8-6.3-3-10.6-8.9-11.7-15.8-3.2 5.7-8.7 9.7-15.1 11.1-6.3 1.4-13 0.1-18.4-3.6-2.6 1.2-5.8 0.7-7.9-1.3-2.2-1.9-3-5-2-7.7-7.2 7.3-17.7 10.5-27.8 8.3-9-2-16.7-8-20.6-16.3q3 0.1 5.8 1.3c0.3-1.2 0.9-2.2 1.7-3.1 1.1-1.1 2.5-1.9 4.1-2.1 2.8-0.5 5.6 0.8 7.1 3.3 0.8-2.4 2.1-4.7 3.6-6.6 2.4-3 5.5-5.4 9.1-7 5.9-2.5 12.6-2.4 18.5 0.3q1.5-2.7 3.4-5.1c6.9-8.7 17.4-14.1 28.8-14.3 13.4-0.3 26 6.6 33 18.1 3.6-3.8 9.1-5.3 14.1-3.9 5.1 1.4 9 5.4 10.3 10.5 3.4-4.6 9.4-6.4 14.9-4.5q1 0.4 1.9 0.9c4.3 2.4 7 6.9 6.8 12 2.2-1.3 4.9-1.5 7.4-0.6 2.4 1 4.3 3 5.1 5.5 8.9-11.7 22.9-18.2 37.6-17.5 14.7 0.8 28 8.6 35.7 21.1 3.9-2 8.6-1.3 11.7 1.8 3.1 3.1 3.7 7.9 1.6 11.7 8.7-4.3 19.1-3.7 27.2 1.7 8.2 5.4 12.8 14.7 12.2 24.5q10.7-1.8 5.6 9.7z"/>
				<path id="&lt;Path&gt;" class="s12" d="m163.8 164.9c-16.8 10.4-38.5 9.4-54.3-2.8-1.3 4.6-3.9 8.7-7.3 11.9-2.6 0.3-5.2-0.5-7.2-2.3-2.8-2.5-3.8-6.4-2.7-10-4 4.6-10.3 6.5-16.2 5-5.9-1.5-10.4-6.2-11.7-12.2-0.2 4-2.6 7.6-6.2 9.3-3.5 1.8-7.8 1.5-11.1-0.7-3.3-2.2-5.1-6.1-4.8-10-4.4 2.8-9.9 2.9-14.4 0.2-4.5-2.6-7-7.6-6.6-12.7 0.2-2.9 1.3-5.6 3.1-7.7 2.5-1.7 5.4-2.6 8.4-2.6 3.9 8.3 11.6 14.3 20.6 16.3 10.1 2.2 20.6-1 27.8-8.3-1 2.7-0.2 5.8 2 7.7 2.1 2 5.3 2.5 7.9 1.3 5.4 3.7 12.1 5 18.4 3.6 6.4-1.4 11.9-5.4 15.1-11.1 1.1 6.9 5.4 12.8 11.7 15.8 6.2 3.1 13.6 2.8 19.6-0.8 0.7 4.7 3.8 8.4 7.9 10.1z"/>
				<path id="&lt;Path&gt;" class="s13" d="m102.2 174c-2 1.9-4.3 3.5-6.8 4.7-6.9 3.2-14.9 3.3-21.9 0.1-5.6 20.7-15.8 5.5-31.2 10-4.6-1.5-8-5.5-8.6-10.4-0.7 1.6-1.9 2.8-3.3 3.7-2.1-0.7-3.9-2.3-4.6-4.5-0.9-2.5-0.3-5.4 1.6-7.3-6.8 3.3-15 0.6-18.5-6-2.8-5.4-1.9-11.7 2-16 2.4-0.7 4.9-0.8 7.4-0.1-1.2-5.4 0.8-11 5.1-14.5q0.4-0.4 1-0.8c-1.8 2.1-2.9 4.8-3.1 7.7-0.4 5.1 2.1 10.1 6.6 12.7 4.5 2.7 10 2.6 14.4-0.2-0.3 3.9 1.5 7.8 4.8 10 3.3 2.2 7.6 2.5 11.1 0.7 3.6-1.7 6-5.3 6.2-9.3 1.3 6 5.8 10.7 11.7 12.2 5.9 1.5 12.2-0.4 16.2-5-1.1 3.6-0.1 7.5 2.7 10 2 1.8 4.6 2.6 7.2 2.3z"/>
				<path id="&lt;Path&gt;" class="s12" d="m30.4 182.1c-1.9 1.2-4.2 1.8-6.6 1.4-4.1-0.7-7.2-3.9-7.8-8-5.5 0.5-10.8-2.3-13.5-7.2-2.6-4.9-2.1-10.9 1.3-15.3 1.9-2.3 4.4-3.9 7.1-4.7-3.9 4.3-4.8 10.6-2 16 3.5 6.6 11.7 9.3 18.5 6-1.9 1.9-2.5 4.8-1.6 7.3 0.7 2.2 2.5 3.8 4.6 4.5z"/>
				<path id="&lt;Path&gt;" class="s8" d="m369.6 209c-18.7 13.7-38.5-8.1-59-12.2-11.7 4.1-24.6-1.4-29.7-12.7-1.2 0.9-2.7 1.2-4.1 0.8-1.4-0.3-2.6-1.2-3.3-2.5-13.6 16.3-37.7 19.1-54.6 6.2-11.2-12.4-28.8-16.9-44.5-11.3-0.2 5-3.3 9.4-7.9 11.4-4.6 2.1-9.9 1.3-13.7-1.8-9.8 2.8-20.2 0.1-27.4-7.1-1.8 11.4-9.1 21.1-19.4 26-10.4 4.9-22.5 4.4-32.5-1.4-3.7 5.9-11.1 8.5-17.7 6.2-6.6 6.2-15.5 9-24.4 7.8-7.7-1-14.7-5.1-19.5-11.2 3.5-6.1 12.3-12.6 30.4-18.4 15.4-4.5 25.6 10.7 31.2-10 7 3.2 15 3.1 21.9-0.1 2.5-1.2 4.8-2.8 6.8-4.7 3.4-3.2 6-7.3 7.3-11.9 15.8 12.2 37.5 13.2 54.3 2.8q2.1-1.3 4.2-2.8c8.4-6.8 20.4-6.8 28.8 0 4-2.9 9-3.9 13.8-2.7 4.7 1.3 8.7 4.5 10.8 8.9 3 5.4 8.9 8.5 15 8 6.1-0.5 11.4-4.6 13.5-10.4 10.8 6.2 24 6.2 34.7 0 5 11.6 18.5 16.9 30.1 12 1.7 4.9 5.5 8.9 10.3 10.8 4.9 2 10.4 1.7 15-0.7 17.2 0.8 15.3 11.5 28.7 20.5q0.5 0.3 0.9 0.5z"/>
				<path id="&lt;Path&gt;" class="s10" d="m396.3 212.2c-12.1 11.1-24.9 3.3-28 11.3-3.7 9.8-32.5-0.8-52-6-19.6-5.3-11 14.4-22.6 8.5-5.3 1.5-10.9 0.6-15.3-2.7-5.4 3.5-11 6.4-16.8 8.6-22.1 6.5-46.1 3.7-66.4-8.1-9.1 2-18.6-0.4-25.8-6.3-1 1.8-2.8 2.9-4.9 3.2-2 0.3-4.1-0.3-5.6-1.8-9.3 12.3-24.4 18.4-39.2 16.6-1-0.4-2-0.8-2.9-1.3-0.7-0.3-1.5-0.6-2.2-1-2.1-1.1-4.2-2.4-6.1-3.8-2.9 1.4-6.4 0.9-8.6-1.4-8.4 6.2-19.4 7.4-28.9 3.1-5.2 8.1-14.3 12.9-24 12.5-9.6-0.4-18.3-5.9-22.8-14.4-6.4-0.7-18.8-10.6-12.3-22 4.8 6.1 11.8 10.2 19.5 11.2 8.9 1.2 17.8-1.6 24.4-7.8 6.6 2.3 14-0.3 17.7-6.2 10 5.8 22.1 6.3 32.5 1.4 10.3-4.9 17.6-14.6 19.4-26 7.2 7.2 17.6 9.9 27.4 7.1 3.8 3.1 9.1 3.9 13.7 1.8 4.6-2 7.7-6.4 7.9-11.4 15.7-5.6 33.3-1.1 44.5 11.3 16.9 12.9 41 10.1 54.6-6.2 0.7 1.3 1.9 2.2 3.3 2.5 1.4 0.4 2.9 0.1 4.1-0.8 5.1 11.3 18 16.8 29.7 12.7 20.5 4.1 40.3 25.9 59 12.2 9.1 5.8 17.5 5.2 24.9 0.9 1.5-0.9 3 1.1 1.8 2.3z"/>
				<path id="&lt;Path&gt;" class="s2" d="m261.6 231.9q-4 1.6-8.1 2.8c-1.4 0.4-2.8 0.7-4.2 1q-4.2 1-8.4 1.6c-1.4 0.2-2.8 0.4-4.2 0.5-1.5 0.1-2.9 0.2-4.3 0.3q-4 0.2-8 0c-0.3 0-0.6 0-0.9 0q-0.3 0-0.6-0.1-1.3 0-2.7-0.1c-0.1 0-0.2-0.1-0.3-0.1q-0.6 0-1.1-0.1-0.1 0-0.1 0c-1.2-0.1-2.4-0.2-3.5-0.4-1.3-0.2-2.5-0.4-3.8-0.6-0.7-0.2-1.5-0.3-2.2-0.5q-0.8-0.1-1.5-0.3-0.9-0.2-1.8-0.4-1.5-0.3-2.9-0.8c-1.3-0.3-2.7-0.8-4-1.2q-0.8-0.3-1.6-0.6c-1.1-0.4-2.3-0.8-3.4-1.2-8.2 3.3-17.6 1.5-24.1-4.7q-1 1-2.2 1.8-1.6 1.2-3.2 2.2-0.9 0.6-1.9 1.2-0.7 0.4-1.4 0.7-1 0.6-2.1 1.1-0.8 0.4-1.6 0.7-0.5 0.3-0.9 0.4-0.9 0.4-1.9 0.8-2.8 1-5.6 1.6-1.2 0.3-2.3 0.5-0.5 0.1-0.9 0.2-0.5 0.1-0.9 0.1-0.9 0.1-1.9 0.2-1.1 0.2-2.2 0.2c-7.1 0.5-14.4-0.6-21.2-3.2 14.8 1.8 29.9-4.3 39.2-16.6 1.5 1.5 3.6 2.1 5.6 1.8 2.1-0.3 3.9-1.4 4.9-3.2 7.2 5.9 16.7 8.3 25.8 6.3 20.3 11.8 44.3 14.6 66.4 8.1z"/>
				<path id="&lt;Path&gt;" class="s10" d="m66.3 203c-2.6 1.2-12.9 8.6-21.2-5.6 6.7 9.8 15.7 8.1 23.1 3.2 2.8 3.9 7 4.4 16.5-2.5q-8.6 16.2-18.4 4.9z"/>
				<path id="&lt;Path&gt;" class="s10" d="m112.5 181c8.9 3.6 17-4.4 17.9-7.6-0.3 13.9-12 11.7-17.9 7.6z"/>
				<path id="&lt;Path&gt;" class="s10" d="m163 177.4c6.6 0.9 12.7-3.2 12.3-11.3 3.1 18.6-7.2 15.4-12.3 11.3z"/>
				<path id="&lt;Path&gt;" class="s13" d="m57.2 150.4c7 4.3 8.7 3.7 13.4 0.9q4.4 7.4 13.1 3.4-8.2 6.5-14.8-0.7-2.7 7.7-11.7-3.6z"/>
				<path id="&lt;Path&gt;" class="s8" d="m274.8 154.6c7 12 14.2 11.8 20.5 9.9-10.9 7-15.5 2.5-20.5-9.9z"/>
				<path id="&lt;Path&gt;" class="s8" d="m230.3 150.7c15.8 17.2 24.8 13.9 31.8 8-9.9 16.4-18.4 10.8-31.8-8z"/>
				<path id="&lt;Path&gt;" class="s8" d="m308.6 171.8c7.3 6 9.8 7.6 16.7 6-13.8 5.4-16.7-6.3-16.7-6z"/>
				<path id="&lt;Path&gt;" class="s12" d="m79.9 124.3c9.1 9.6 16.3 8 20.5 4.6 2.8 11 15.7 7.5 18.5 5q-13.5 12.5-20.7 0.2-13.4 3.9-18.3-9.8z"/>
				<path id="&lt;Path&gt;" class="s12" d="m69.3 132.3c7.4 6 15 5.7 20.7 2.1-8.7 8.4-12.7 9.2-20.7-2.1z"/>
				<path id="&lt;Path&gt;" class="s12" d="m118.9 136c7.3 6 14.9 5.7 20.6 2.1-8.6 8.5-12.7 9.2-20.6-2.1z"/>
				<path id="&lt;Path&gt;" class="s12" d="m150.6 148.6c7 5.8 6.4 7.7 15 1.4-11.8 12.9-12.7 4.7-15-1.4z"/>
				<ellipse id="&lt;Path&gt;" class="s12" cx="48" cy="233.3" rx="11.7" ry="3.2"/>
				<ellipse id="&lt;Path&gt;" class="s7" cx="125" cy="229.8" rx="8.2" ry="2.6"/>
				<ellipse id="&lt;Path&gt;" class="s7" cx="247.1" cy="228.9" rx="10.7" ry="2.3"/>
				<ellipse id="&lt;Path&gt;" class="s7" cx="352.5" cy="222.3" rx="7.2" ry="1"/>
			</g>
			<g id="&lt;Group&gt;">
				<path id="&lt;Path&gt;" class="s11" d="m201.5 86.2c-5.5 7.3-15.2 10.2-23.8 7.2-8.7-3-14.4-11.3-14.1-20.5-6.8 5.6-16.3 6.7-24.2 2.8-7.9-3.8-12.9-12-12.7-20.8-0.9 0.3-1.9-0.1-2.5-0.8-0.7-0.7-0.8-1.8-0.3-2.6 0.4-0.9 1.3-1.4 2.2-1.4-7-4.7-9.2-13.9-5.1-21.3 4.1-7.3 13.1-10.3 20.8-6.8-0.5-1.1-0.5-2.5 0-3.6 0.4-1.2 1.3-2.1 2.5-2.6-0.5-6.9 4.2-13.1 11-14.5 6.8-1.4 13.6 2.3 16 8.8 2.3-1.3 5.2-1.1 7.3 0.4 2.1 1.7 3 4.4 2.3 7 9.4-0.7 17.9 5.6 20 14.8 2.1 9.3-3 18.7-11.9 22 2.5 0 4.8 1.4 5.8 3.7 1 2.2 0.6 4.9-1.1 6.7 3.4-1 6.5-1.5 9.3-1.6 4.1 7.2 3.6 16.3-1.5 23.1z"/>
				<path id="&lt;Path&gt;" class="s10" d="m86.1 111.3q-1.9 2.4-3.4 5.1c-5.9-2.7-12.6-2.8-18.5-0.3-3.6 1.6-6.7 4-9.1 7q-1-0.1-2-0.7c-1.9-1-3.1-2.8-3.4-4.8-3.5-0.2-6.7-2-8.7-4.8-1.2-1.8-1.9-3.8-2.1-5.9 3-4.1 7.7-6.8 13-7.1-2.6-1.5-4-4.6-3.5-7.6 0.6-3 3-5.3 6-5.8-5.8-5.3-7.8-13.7-4.8-21.1 2.9-7.3 10.1-12.1 18-11.9-2.6 2-4.6 4.5-6 7.2-2.6 5-3.3 10.9-1.7 16.6 2.6 8.7 10.2 15 19.3 15.8-2.7 0-4.9 2.3-4.9 5 0 2.7 2.2 4.9 4.9 4.9 0.3 4.1 3.1 7.4 6.9 8.4z"/>
				<path id="&lt;Path&gt;" class="s12" d="m55.1 123.1c-1.5 1.9-2.8 4.2-3.6 6.6-1.5-2.5-4.3-3.8-7.1-3.3-1.6 0.2-3 1-4.1 2.1-3.8-4-5.5-9.8-4.2-15.4 0.5-2.3 1.5-4.4 2.8-6.2 0.2 2.1 0.9 4.1 2.1 5.9 2 2.8 5.2 4.6 8.7 4.8 0.3 2 1.5 3.8 3.4 4.8q1 0.6 2 0.7z"/>
				<path id="&lt;Path&gt;" class="s12" d="m217.4 93.2c-3 2.2-6.9 3.1-10.8 2.2-4.2 7-11.4 11.5-19.4 12.3-8.1 0.9-16-2.1-21.6-8-11.3 3.6-23.5-2.2-28.1-13.2-10.9 6.6-24.9 4.9-34.1-3.9-1.4 0.7-3.2 0.5-4.4-0.6-1.3-1.1-1.7-2.9-1.1-4.4-7.5 4-16.4 3.9-23.8-0.1-6.5-3.6-11-9.8-12.5-16.9 1.4-2.7 3.4-5.2 6-7.2-5-7.4-2.1-22.9 4.2-13.4 1.5-13.9 10.6-28.3 19.2-16-0.3-4.3 2.4-8.2 6.6-9.4 4.1-1.3 8.6 0.5 10.7 4.3 1.4-6.7 7-11.7 13.9-12.3 6.8-0.6 13.3 3.4 15.8 9.8 1.6-1.8 4.3-2 6.3-0.6-1.2 0.5-2.1 1.4-2.5 2.6-0.5 1.1-0.5 2.5 0 3.6-7.7-3.5-16.7-0.5-20.8 6.8-4.1 7.4-1.9 16.6 5.1 21.3-0.9 0-1.8 0.5-2.2 1.4-0.5 0.8-0.4 1.9 0.3 2.6 0.6 0.7 1.6 1.1 2.5 0.8-0.2 8.8 4.8 17 12.7 20.8 7.9 3.9 17.4 2.8 24.2-2.8-0.3 9.2 5.4 17.5 14.1 20.5 8.6 3 18.3 0.1 23.8-7.2 5.1-6.8 5.6-15.9 1.5-23.1 16.6-0.5 23.3 14.1 14.4 30.1z"/>
				<path id="&lt;Path&gt;" class="s8" d="m217.4 93.2c-4.7 8.6-13.8 17.5-28.3 24.9q-0.9-0.5-1.9-0.9c-5.5-1.9-11.5-0.1-14.9 4.5-1.3-5.1-5.2-9.1-10.3-10.5-5-1.4-10.5 0.1-14.1 3.9-7-11.5-19.6-18.4-33-18.1-11.4 0.2-21.9 5.6-28.8 14.3-3.8-1-6.6-4.3-6.9-8.4-2.7 0-4.9-2.2-4.9-4.9 0-2.7 2.2-5 4.9-5-9.1-0.8-16.7-7.1-19.3-15.8-1.6-5.7-0.9-11.6 1.7-16.6 1.5 7.1 6 13.3 12.5 16.9 7.4 4 16.3 4.1 23.8 0.1-0.6 1.5-0.2 3.3 1.1 4.4 1.2 1.1 3 1.3 4.4 0.6 9.2 8.8 23.2 10.5 34.1 3.9 4.6 11 16.8 16.8 28.1 13.2 5.6 5.9 13.5 8.9 21.6 8 8-0.8 15.2-5.3 19.4-12.3 3.9 0.9 7.8 0 10.8-2.2z"/>
				<path id="&lt;Path&gt;" class="s14" d="m149.2 25.3c-2-4.4-1.1-9.6 2.4-13 3.4-3.4 8.6-4.3 13-2.2 4.4 2.1 6.9 6.8 6.4 11.6 1.1-0.5 2.4-0.5 3.5 0 1.1 0.5 1.9 1.5 2.2 2.7 6 0.4 11.1 4.5 12.9 10.2 1.8 5.8-0.1 12.1-4.9 15.8-4.7 3.7-11.3 4.1-16.4 1-1.9 4.4-6.1 7.1-10.8 7.1-4.7-0.1-8.9-3-10.6-7.4-1.7-4.3-0.6-9.3 2.7-12.5-2.9 1.3-6.4 0.5-8.5-2-2.1-2.6-2.2-6.2-0.3-8.8 2-2.6 5.4-3.7 8.4-2.5z"/>
				<path id="&lt;Path&gt;" class="s8" d="m128.2 74.7c5 13.6 19.3 12.6 26.3 10.1-13.8 11.7-22.2 5.7-26.3-10.1z"/>
				<path id="&lt;Path&gt;" class="s8" d="m161.7 92.4c3 5.9 7.2 8 12.3 5.1-11.1 9.5-11.7 2.5-12.3-5.1z"/>
				<path id="&lt;Path&gt;" class="s12" d="m155.5 62.8c5.3 10.9 17 12.6 26.7 2.3-12.5 19.9-25 12.1-26.7-2.3z"/>
			</g>
			<ellipse id="&lt;Path&gt;" class="s14" cx="246.8" cy="126.6" rx="13.3" ry="5.7"/>
			<ellipse id="&lt;Path&gt;" class="s14" cx="234.4" cy="126" rx="9.4" ry="3.4"/>
			<ellipse id="&lt;Path&gt;" class="s14" cx="119.7" cy="107.6" rx="14.6" ry="6.6"/>
			<ellipse id="&lt;Path&gt;" class="s14" cx="74" cy="119.7" rx="5.6" ry="1.8"/>
			<ellipse id="&lt;Path&gt;" class="s14" cx="160.7" cy="116.4" rx="2.9" ry="1.9"/>
			<ellipse id="&lt;Path&gt;" class="s14" cx="185.2" cy="121.5" rx="2.6" ry="1.2"/>
			<ellipse id="&lt;Path&gt;" class="s14" cx="309.2" cy="154.4" rx="7.8" ry="3.4"/>
			<ellipse id="&lt;Path&gt;" class="s11" cx="126" cy="12" rx="5.1" ry="3.5"/>
			<ellipse id="&lt;Path&gt;" class="s11" cx="101.2" cy="18.9" rx="2.6" ry="1.3"/>
			<circle id="&lt;Path&gt;" class="s11" cx="84.7" cy="25.1" r="2.5"/>
			<path id="&lt;Path&gt;" class="s2" d="m73.4 214.6c22.1 11.4 45.5 4.7 49.7-6.2 12.4 4 26.4-1.3 29.4-10 19.9 8.8 36.5 3.9 43.2-3.5 6.7-7.3 19-5.1 26.1 6.6 11.2-1.3 22.2 1.2 23.6 10.9 1.3 9.8-16.4 14-22.5 5.9-5.4 3-15.5-0.1-12.7-5.8-9 3.3-14.5-3.5-14.3-7.6-11.6 10.6-35.5 6.4-40.4 2.3-7.5 6.1-22.7 10.2-29.8 6-10 7.8-30.5 15.9-52.3 1.4z"/>
			<path id="&lt;Path&gt;" class="s2" d="m258.1 202.5c9.6 2.1 17.2-1.2 19.5-8.2 6.8 10.3 26 14.4 35.3 8.5-16.6 12.1-31.2 5.1-33.9 2.8-10.2 6.2-20.3-2.4-20.9-3.1z"/>
			<path id="&lt;Path&gt;" class="s15" d="m55.4 101.2c5.7 4.3 10.9 0.8 11.7-2.3 0.6 7.2 3.2 11.2 12.5 12.4q-12.8 0.1-14.9-6.2-7.1 1.3-9.3-3.9z"/>
			<path id="&lt;Path&gt;" class="s8" d="m101.6 158.7c8.2 4.3 13.7 2.2 18.2-2.7-8 13.7-15.4 6.7-18.2 2.7z"/>
			<path id="&lt;Path&gt;" class="s13" d="m40.2 149c2.2 3.6 6 4.9 11.1 3-7.1 4.7-10.8 1.4-12.4-1.8-5 0.4-9.1-4.8-7.4-10 0.1 5.3 3.4 8.9 8.7 8.8z"/>
			<path id="&lt;Path&gt;" class="s2" d="m112.8 207.4c9.1 3.3 15.1-1.8 18-6-6.1 14.2-16.2 8.2-18 6z"/>
			<path id="&lt;Path&gt;" class="s2" d="m144.3 197.1c7.1 2.1 11.5-1.1 14.7-3-3.9 8.9-10.3 6.8-14.7 3z"/>
		</g>
		<g id="&lt;Group&gt;">
			<path id="&lt;Path&gt;" class="s16" d="m759.1 189.5c-2.6-0.4-5-1.6-7.1-3.4-6 11.1-17.9 17.8-30.5 17.2-10-0.5-19.1-5.5-24.9-13.4 14.3 1.5 30.7-6.5 11.2-14.6 0.7-2.4-0.5-4.9-2.8-5.7 26.1 3 23-24.4-2.9-27.7 0.6-2.4-0.3-5-2.3-6.6-2-1.6-4.7-1.9-7-0.8 6.6-4.5 8.9-13.2 5.2-20.4-2.9-5.9-9.1-9.2-15.4-8.6 8.1-6.4 20.2-3.4 24.3 12 0.5-0.8 1.3-1.4 2.3-1.6 0.9-0.1 1.9 0.2 2.6 0.8-1-2-0.8-4.4 0.6-6.1 1.4-1.8 3.7-2.5 5.9-2 2.2 0.5 3.8 2.2 4.3 4.4 2.8-4.5 6.4-6.9 9.7-7.2 3.1 5.1 4.2 11.3 3 17.2-1.4 6.8-5.5 12.7-11.5 16.3 1.4 0.1 2.6 0.9 3.4 2 0.8 1.1 1.1 2.5 0.8 3.9 1.1 0.2 2 0.9 2.6 1.8 0.5 0.9 0.7 2.1 0.4 3.1 5.5-1.6 11.3 1.1 13.6 6.3 2.2 5.3 0.2 11.4-4.8 14.3 5.9-2.1 12.4-0.4 16.4 4.3 3.5 4 4.5 9.5 2.9 14.5z"/>
			<path id="&lt;Path&gt;" class="s16" d="m679 201q0 0 0 0c-8.4 6.1-19 9-29.8 7.4 1.8 3.8 2 8.2 0.4 12-1.5 3.9-4.7 7-8.6 8.4 3.4 2.6 5.5 6.6 5.6 10.9 0 2.8-0.7 5.6-2.2 7.9q-0.2 0-0.4 0.1c-1.4 0.6-2.8 1-4.3 1-2.4 0.2-4.8-0.3-7-1.5-3.5-1.9-5.8-5.3-6.4-9.3-2.8 0.8-5.8-0.4-7.3-2.9-1.6-2.5-1.3-5.7 0.6-7.9-5.9 5.1-14.7 4.6-20-1.1-5.3-5.7-5.1-14.6 0.4-20.1-0.7-2.1-0.7-4.4-0.1-6.5 9.4 13.5 35.5 5.7 24.3-2.7q11.7-2.4 3.6-6.6c22.2-1.9 10.3-25.8-10.7-11-1.6-1-3.7-0.9-5.3 0.1q-0.4 0.2-0.8 0.5c-0.7-3.3-2.2-6.4-4.3-9.1 18.4 0.2 24.2-12.3 8.3-11.5 0.7-0.6 1-1.6 0.5-2.5-0.4-0.9-1.3-1.3-2.3-1.1 1.5-1.1 2-3.1 1.2-4.8-0.7-1.3-2-2.1-3.5-2 4.2-0.9 7.5-4.1 8.5-8.2 1.1-4.6-0.8-9.3-4.7-11.8-3.9-2.5-9-2.3-12.7 0.5 5.3-9.8-5.5-6.2-6.2-6 0.3-0.5 10.2-14.8-11.4-4.6 0.1-9.8 6.6-18.4 16.1-21.1 9.5-2.8 19.6 1 24.9 9.3 1.8-2.2 4.5-3.6 7.4-3.6 2.9-0.1 5.7 1.2 7.6 3.4 1.9-1.1 3.7-1.9 5.3-2.6q10 8.3-11 27.2 18.5 3.2 8.1 9.5 11.9 0.6 7.5 7c8.7-0.9 16.7 4.7 18.7 13.3 2 8.5-2.7 17.2-11 20.1 18.5-2.9 14 4.9 9.2 9 7.3-1.1 11.3 0.8 12.6 3.7q0 0 0 0c1 2.1 0.6 4.8-0.8 7.2z"/>
			<path id="&lt;Path&gt;" class="s17" d="m761.7 182.2c-1.1 7.3-10.5 4.7-11.6-1q-0.5 13.5-11.9 11.8c-1.9 2.8-5.1 5.8-13-4.5-3.2 8.8-8.1 11.9-28.1 4.8 24.8 25.7 63.6 4.5 64.6-11.1z"/>
			<path id="&lt;Path&gt;" class="s16" d="m781.9 218.2q-0.4 1.1-1 2.1c-2.3 3.8-6.7 5.8-11.2 4.9 0.8 1.3 0.7 2.9-0.2 4.1-0.8 1.2-2.3 1.8-3.8 1.6-0.5 5.9-4.3 11-9.8 13.3-5.4 2.2-11.7 1.3-16.2-2.4-11 4.4-21.8 6.2-32.2 6.7-6.7 0.3-13.3 0.1-19.6-0.4 11.4-1.8 21.9-7.7 29.5-16.6 0.6 1.3 1.9 2.2 3.4 2.2 1.5 0 2.8-0.9 3.4-2.2 6 3.9 13.7 4.2 20 0.8 6.3-3.5 10.3-10.1 10.3-17.2 4.3 1.2 8.8 0.5 12.6-1.7 2.3 3 6.5 4 9.9 2.4 2.2-1 3.8-2.8 4.5-5 1 2.2 1.2 4.9 0.4 7.4z"/>
			<path id="&lt;Path&gt;" class="s17" d="m679 201q0 0 0 0c-8.4 6.1-19 9-29.8 7.4 1.8 3.8 2 8.2 0.4 12-1.5 3.9-4.7 7-8.6 8.4 3.4 2.6 5.5 6.6 5.6 10.9 0 2.8-0.7 5.6-2.2 7.9q-0.2 0-0.4 0.1c-1.4 0.6-2.8 1-4.3 1 5.6-5.3 2.6-14.3-5.1-20.6 11.8 0.5 13.5-18.2 10.9-25.2 9.6 5.8 16.6 0.9 21.3-4 7.7 1.8 12.7-0.3 13-5.1 1 2.1 0.6 4.8-0.8 7.2z"/>
			<path id="&lt;Path&gt;" class="s18" d="m781.5 210.8c-0.7 2.2-2.3 4-4.5 5-3.4 1.6-7.6 0.6-9.9-2.4-3.8 2.2-8.3 2.9-12.6 1.7 0 7.1-4 13.7-10.3 17.2-6.3 3.4-14 3.1-20-0.8-0.6 1.3-1.9 2.2-3.4 2.2-1.5 0-2.8-0.9-3.5-2.2-7.5 8.9-18 14.8-29.4 16.7-16.2-1.1-31-3.4-43.5-0.6 1.5-2.3 2.2-5.1 2.2-7.9-0.1-4.3-2.2-8.3-5.6-10.9 3.9-1.4 7.1-4.5 8.6-8.4 1.6-3.8 1.4-8.2-0.4-12 10.8 1.6 21.4-1.3 29.8-7.4q0 0 0 0c4.1-3 7.6-6.7 10.4-11.1q2-3.1 3.4-6.6c1 2.4 2.3 4.6 3.8 6.6 5.8 7.9 14.9 12.9 24.9 13.4 12.6 0.6 24.5-6.1 30.5-17.2 2.1 1.8 4.5 3 7.1 3.4 1.8 0.3 3.6 0.3 5.4-0.1 4.5-1 8.3-3.9 10.2-8 4.9-2.3 8.6-6.8 9.8-12.1 0.6-2.3 0.7-4.8 0.3-7.2q0.8 1.1 1.4 2.3c7.7 14.2 3.3 31.9-10 41 2.5 1.1 4.3 3 5.3 5.4z"/>
			<path id="&lt;Path&gt;" class="s17" d="m784.5 169.3c-1.2 5.3-4.9 9.8-9.8 12.1-1.9 4.1-5.7 7-10.2 8-1.8 0.4-3.6 0.4-5.4 0.1 1.6-5 0.6-10.5-2.9-14.5-4-4.7-10.5-6.4-16.4-4.3 5-2.9 7-9 4.8-14.3-2.3-5.2-8.1-7.9-13.6-6.3 0.3-1 0.1-2.2-0.4-3.1-0.6-0.9-1.5-1.6-2.6-1.8 0.3-1.4 0-2.8-0.8-3.9-0.8-1.1-2-1.9-3.4-2 6-3.6 10.1-9.5 11.5-16.3 1.2-5.9 0.1-12.1-3-17.2 8.8-1.1 16 11.1 3.7 32.3 3.2-0.3 6.4 0.9 8.5 3.4 2.1 2.4 2.8 5.7 2 8.8 14.1-5.8 30.1-0.7 38.3 11.8q0 0 0 0c0.4 2.4 0.3 4.9-0.3 7.2z"/>
			<path id="&lt;Path&gt;" class="s17" d="m689.4 189.9c-2.8 4.4-6.3 8.1-10.4 11.1 3.4-5.9 0.7-12.9-11.8-10.9 4.8-4.1 9.3-11.9-9.2-9 8.3-2.9 13-11.6 11-20.1-2-8.6-10-14.2-18.7-13.3q4.4-6.4-7.5-7 10.4-6.3-8.1-9.5 21-18.9 11-27.2c16.6-6.6 16 8.3 1.3 22.1 0.9-0.2 17.3-4.6 9.3 7.4 1.6-0.7 3.5-0.2 4.6 1.3 1.1 1.4 1 3.4-0.2 4.8 2.6-1.4 5.9-0.7 7.7 1.6 1.9 2.3 1.9 5.6-0.1 7.9 4.7-1.8 9.9-1.2 14.1 1.4-2.2 1.2-3.7 3.3-4 5.8-0.4 2.5 0.5 5 2.4 6.7-0.5 1.1-0.4 2.4 0.3 3.4 0.6 1 1.8 1.5 3 1.4-4 3.2-5.7 8.5-4.2 13.5 1.4 4.4 5 7.7 9.5 8.6z"/>
			<path id="&lt;Path&gt;" class="s19" d="m606.7 170.6c-2.4-3.1-5.6-5.5-9.4-7.1-0.8 1.6-2.6 2.4-4.3 2-1.7-0.4-3-1.9-3-3.7-8.9 2.9-18.5-1.7-21.8-10.4-3.4-8.7 0.7-18.5 9.2-22.4-0.9-4.8 2.2-9.4 7-10.4 21.6-10.2 11.7 4.1 11.4 4.6 0.7-0.2 11.5-3.8 6.2 6 3.7-2.8 8.8-3 12.7-0.5 3.9 2.5 5.8 7.2 4.7 11.8-1 4.1-4.3 7.3-8.5 8.2 1.5-0.1 2.8 0.7 3.5 2 0.8 1.7 0.3 3.7-1.2 4.8 1-0.2 1.9 0.2 2.3 1.1 0.5 0.9 0.2 1.9-0.5 2.5 15.9-0.8 10.1 11.7-8.3 11.5z"/>
			<path id="&lt;Path&gt;" class="s19" d="m627.8 190.1q8.1 4.2-3.6 6.6c11.2 8.4-14.9 16.2-24.3 2.7q0.6-2 1.8-3.8c2.1-3 5.5-4.9 9.2-5.1 0.9-3.6 0.9-7.3 0.1-10.8q0.4-0.3 0.8-0.5c1.6-1 3.7-1.1 5.3-0.1 21-14.8 32.9 9.1 10.7 11z"/>
			<ellipse id="&lt;Path&gt;" class="s5" cx="576.5" cy="143.7" rx="4.1" ry="5.4"/>
			<ellipse id="&lt;Path&gt;" class="s5" cx="579.3" cy="138" rx="3.1" ry="4.7"/>
			<ellipse id="&lt;Path&gt;" class="s5" cx="630.4" cy="178.9" rx="5.6" ry="1.3"/>
			<ellipse id="&lt;Path&gt;" class="s5" cx="608.2" cy="193.9" rx="2.7" ry="1"/>
			<ellipse id="&lt;Path&gt;" class="s5" cx="609.9" cy="131.6" rx="2.9" ry="1.5"/>
			<ellipse id="&lt;Path&gt;" class="s5" cx="593.3" cy="118.3" rx="2.9" ry="1.5"/>
			<ellipse id="&lt;Path&gt;" class="s19" cx="717.9" cy="114.4" rx="1.9" ry="2.4"/>
			<ellipse id="&lt;Path&gt;" class="s19" cx="611" cy="104.2" rx="6.6" ry="4"/>
			<ellipse id="&lt;Path&gt;" class="s19" cx="595.2" cy="107.5" rx="2.3" ry="1.2"/>
			<ellipse id="&lt;Path&gt;" class="s19" cx="602" cy="212.2" rx="2.8" ry="2.3"/>
			<ellipse id="&lt;Path&gt;" class="s19" cx="634.5" cy="107.6" rx="3.8" ry="1.7"/>
			<path id="&lt;Path&gt;" class="s19" d="m705 169.6c2.3 0.8 3.5 3.3 2.8 5.7 13.2 5.4 10 10.9 2.1 13.4-16.1 5.1-27.9 3.4-30.9-7.5-1.4-4.9 1.1-10.2 5.1-13.4-1.2 0.1-2.4-0.4-3-1.4-0.7-1-0.8-2.3-0.3-3.4-1.9-1.7-2.8-4.2-2.4-6.7 0.3-2.5 1.8-4.6 4-5.8-12.3-22.5-8.1-38.6 0.2-45 6.3-0.6 12.5 2.7 15.4 8.6 3.7 7.2 1.4 15.9-5.2 20.4 2.3-1.1 5-0.8 7 0.8 2 1.6 2.9 4.2 2.3 6.6 25.9 3.3 29 30.7 2.9 27.7z"/>
			<ellipse id="&lt;Path&gt;" class="s5" cx="688.5" cy="117.9" rx="5" ry="4.4"/>
			<ellipse id="&lt;Path&gt;" class="s5" cx="686.3" cy="124.8" rx="4.4" ry="5.5"/>
			<path id="&lt;Path&gt;" class="s5" d="m714.6 150.1c-0.3 1-2.9 1-5.7 0-2.8-1-4.8-2.6-4.4-3.5 0.3-1 2.9-1 5.7 0 2.8 0.9 4.8 2.5 4.4 3.5z"/>
			<ellipse id="&lt;Path&gt;" class="s5" cx="683.4" cy="121.2" rx="2.7" ry="3.8"/>
			<ellipse id="&lt;Path&gt;" class="s5" cx="684.4" cy="155.6" rx="2.3" ry="2.9"/>
			<path id="&lt;Path&gt;" class="s2" d="m648.6 232.5c12.5 4.8 28.4-2.5 27.2-18.4 7.7 5.9 18.8 3.1 20.1-4.3 3 3.8 8.3 4.5 9.5 2.6 4.9 10.8 27.1 8 30.2-3.6 3-11.5 24.5-12.9 25.3-4.7 0.8 8.2-7.3 8.6-9.7 2.6 2.6 8.3-5.6 15.7-11.8 10.5-0.2 10.5-27.4 12.7-41.9 1.2-7.7 5.3-16.5 4-19.3 1.1-1.1 12.5-15.1 20.5-29.6 13z"/>
			<path id="&lt;Path&gt;" class="s2" d="m673.7 235.6c7.3 3.4 14.8-1.5 15.3-7 6 3.6 12.5 0.6 14.5-2.1-2.4 7.8-11.4 6.2-12.6 5.7-4.2 5.6-11.1 7.6-17.2 3.4z"/>
			<path id="&lt;Path&gt;" class="s2" d="m682.1 205.4c4.1 3.8 10 2.2 11.5-1.3 3.2 3.6 8.1 3.1 10 1.7-3.3 4.6-8.8 1.6-9.5 1.1-3.9 2.7-8.9 2.6-12-1.5z"/>
			<path id="&lt;Path&gt;" class="s2" d="m765.1 195c9.3 2.2 19.7-5.8 19.3-16.2 2.7 14.2-9.8 20-19.3 16.2z"/>
			<path id="&lt;Path&gt;" class="s2" d="m654.6 224.8c7 1.2 11.8-4.7 13.5-9.7 1.7-5 11-2.2 8.8 4.3q-1.5 4.2-8 1.5-7.9 7-14.3 3.9z"/>
			<path id="&lt;Path&gt;" class="s17" d="m635.7 203.8c12.6 2.3 15.2-7.6 15.1-11.9 0.8 15.9-5.5 15.1-15.1 11.9z"/>
			<path id="&lt;Path&gt;" class="s17" d="m625.2 229.8c7.2 1.2 11.1-2 10.4-8.7 4.8 7.6 2.6 11.2-10.4 8.7z"/>
			<path id="&lt;Path&gt;" class="s17" d="m741.5 180.5c8.3 1.7 10.9-0.5 12.1-3.4-0.4 8-6 6-12.1 3.4z"/>
			<path id="&lt;Path&gt;" class="s16" d="m695.8 171.5c8 0.5 11.6-5.2 10.8-12.5 2.4 13.5 1 13-10.8 12.5z"/>
			<path id="&lt;Path&gt;" class="s16" d="m609.3 141.1c4.8 4.8 0.5 10.4-4.5 11.1 5.9 0.1 15.3-4 4.5-11.1z"/>
			<path id="&lt;Path&gt;" class="s16" d="m589.6 127.1c9.3-2 10.4 9.1 6.2 10.6 8.3 3.1 4.1 14.6-7.4 13.2 7.8-4.3 11.5-8.9 3.9-12.3 4.8-5.6 4-12.1-2.7-11.5z"/>
			<path id="&lt;Path&gt;" class="s17" d="m629.7 121.3c11.8 4.6 7.1 13.5 3.8 14.3 1.8-4.5 1.2-11.6-3.8-14.3z"/>
			<path id="&lt;Path&gt;" class="s17" d="m650.4 157.9c11.3 5.2 7 13.6 3.7 14.1 8.6 2.1 7.4 13.2-1.9 17 5.1-4.8 8-11.6-1.5-17.3 5.8-3.5 6.5-9.1-0.3-13.8z"/>
			<path id="&lt;Path&gt;" class="s17" d="m719.9 132.7c5 5.1 2.8 9.3-0.1 10.2 6.2 0.6 9.5-6 0.1-10.2z"/>
			<ellipse id="&lt;Path&gt;" class="s7" cx="684.6" cy="244.3" rx="7.8" ry="1.6"/>
			<ellipse id="&lt;Path&gt;" class="s7" cx="653.7" cy="243.1" rx="4.4" ry="1.1"/>
			<ellipse id="&lt;Path&gt;" class="s7" cx="738.5" cy="230.2" rx="3.8" ry="1.4"/>
			<ellipse id="&lt;Path&gt;" class="s7" cx="774.8" cy="213.8" rx="2.2" ry=".9"/>
			<ellipse id="&lt;Path&gt;" class="s16" cx="695.4" cy="187.7" rx="6.2" ry="1.5"/>
			<ellipse id="&lt;Path&gt;" class="s16" cx="615.7" cy="204.3" rx="4.3" ry="1"/>
			<path id="&lt;Path&gt;" class="s2" d="m780.9 220.3c-2.3 3.8-6.7 5.8-11.2 4.9 0.8 1.3 0.7 2.9-0.2 4.1-0.8 1.2-2.3 1.8-3.8 1.6-0.5 5.9-4.3 11-9.8 13.3-5.4 2.2-11.7 1.3-16.2-2.4-11 4.4-21.8 6.2-32.2 6.7 21.1-2.2 30.3-8.6 32.2-11.6 7.7 6.9 20.8 7.4 22.6-5.5 0.7-7 5.6-1.4 4.1-6.5-1.2-4.1 9.3-0.6 14.5-4.6z"/>
		</g>
		<g id="&lt;Group&gt;">
			<path id="&lt;Path&gt;" class="s16" d="m652.4 319.7c-6.3 3.3-13.9 3.3-20.2-0.1 4.5 2.8 4.5 10.1-4.2 6.3-5.2 1.9-11.1 0-14.1-4.6-5.8 3.9-13.6 3.3-18.8-1.5-0.3 1.4-1.4 2.4-2.7 2.7-1.4 0.3-2.8-0.3-3.6-1.5-2 1.6-4.7 2.2-7.2 1.5-2.5-0.6-4.5-2.4-5.6-4.7-4 13.8-35.7 6.6-29.2-6.5 2.4-0.9 5.1-0.9 7.7 0-0.9-0.3-1.5-1.2-1.5-2.2 0.1-0.9 0.8-1.7 1.8-1.9-0.8-0.5-1.5-1.1-2.1-1.9 0.3-2.1 1.7-4 3.7-4.8 2.4-1 5.2-0.3 6.9 1.8 1.2-4.2 4.1-7.6 8-9.5 2.9-1.4 6.3-1.8 9.4-1.1 3.7 3.3 6.2 8.3 7 13.9 0.7-2.7 3.4-4.4 6.2-3.7 1.3-2.7 2.9-5 4.6-6.9 6.7-3.5 15.2-2.3 20.8 3.3 1.6-0.4 3.4-0.2 4.8 0.6 1.5 0.9 2.6 2.3 3 3.9 4.1-1.4 8.5-1.2 12.4 0.5 3.2-3.4 7.6-5.3 12.2-5.3 3.4-0.1 6.7 0.9 9.4 2.7q0 0 0 0.1c2.7 4.7 1 11.9-8.7 18.9z"/>
			<path id="&lt;Path&gt;" class="s17" d="m545 316.4c4.8 9.4 17.4 10.2 21.2 1.6 3.3 4.8 10.8 1 9.8-6.6 3.4 8 8.5 11.1 11.6 7.5 3.2 0.9 4.6-0.2 4.8-2.9 1.3 5 8.1 3.2 8.7 0.1 5.2 4.6 9.1 7.2 12.7 1.5 5.9 6.5 18.8 11.6 16.4-1.9 7.1 5.9 15.8 7.1 22.1 5.5q-19.3 14.7-39.4 8.4c-35.6-0.9-61.1 6.7-67.9-13.2z"/>
			<path id="&lt;Path&gt;" class="s19" d="m661.1 300.7c-2.7-1.8-6-2.8-9.4-2.7-4.6 0-9 1.9-12.2 5.3-3.9-1.7-8.3-1.9-12.4-0.5-0.4-1.6-1.5-3-3-3.9-1.4-0.8-3.2-1-4.8-0.6-5.6-5.6-14.1-6.8-20.8-3.3 12.6-14.3 31.6-7.3 28.1 2.9 2.9-0.8 6 0.1 8 2.4 11.5-8 22.9-5.9 26.5 0.4z"/>
			<path id="&lt;Path&gt;" class="s19" d="m580.7 291.7c-3.1-0.7-6.5-0.3-9.4 1.1-3.9 1.9-6.8 5.3-8 9.5-1.7-2.1-4.5-2.8-6.9-1.8-2 0.8-3.4 2.7-3.7 4.8-3.8-4.9-3-14.2 8.7-7.7 2.3-7.1 5.4-12 12.5-9.9 2.5 0.8 4.8 2.2 6.8 4z"/>
			<path id="&lt;Path&gt;" class="s18" d="m639.6 331c0.4 1.5-0.5 3.1-2 3.5 0 2-1 3.9-2.7 5-1.8 1.1-3.9 1.2-5.7 0.4-3 1.9-6.5 2.7-10 2.5-3.1-1.2-6-2.8-8.7-4.9-6.2 2.4-13.2 1.4-18.4-2.6-0.7 1-2 1.5-3.2 1.3-1.2-0.2-2.1-1-2.5-2.2q-2.3 0.9-4.5 1.5c-3.3-1-6.1-3.1-7.9-6.1-0.2 0.9-0.8 1.5-1.6 1.8-0.8 0.2-1.7 0-2.3-0.5-6 2.7-13.2 1-17.3-4.2-3.1 2.3-7 2.8-10.5 1.4q0 0 0 0c-2.6-3.2-3.1-7.8-1-11.7 1.2-2.3 3.2-4 5.5-4.9-6.5 13.1 25.2 20.3 29.2 6.5 1.1 2.3 3.1 4.1 5.6 4.7 2.5 0.7 5.2 0.1 7.2-1.5 0.8 1.2 2.2 1.8 3.6 1.5 1.3-0.3 2.4-1.3 2.7-2.7 5.2 4.8 13 5.4 18.8 1.5 3 4.6 8.9 6.5 14.1 4.6 8.7 3.8 8.7-3.5 4.2-6.3 6.3 3.4 13.9 3.4 20.2 0.1 1.2 0.4 2.1 1.4 2.5 2.7 0.3 1.2 0 2.5-0.9 3.5q1.2 0.5 2.1 1.3c-0.5 9.8-9.6 9.4-16.5 3.8z"/>
			<path id="&lt;Path&gt;" class="s2" d="m581.9 335.5c-12.7 3.7-26.3 1.7-37.5-5.5q-1.2-0.9-2.1-2.1c3.5 1.4 7.4 0.9 10.5-1.4 4.1 5.2 11.3 6.9 17.3 4.2 0.6 0.5 1.5 0.7 2.3 0.5 0.8-0.3 1.4-0.9 1.6-1.8 1.8 3 4.6 5.1 7.9 6.1z"/>
			<path id="&lt;Path&gt;" class="s2" d="m655.5 340.2c-2.5 1.6-5.7 1.9-8.4 0.5q-1 0.6-2 1c-4.3 1.9-8.9 2.9-13.5 2.9-4.2 0-8.4-0.7-12.4-2.2 3.5 0.2 7-0.6 10-2.5 1.8 0.8 4 0.7 5.7-0.4 1.7-1.1 2.7-2.9 2.7-5 1.5-0.4 2.4-2 2-3.5 6.9 5.6 16 6 16.5-3.8 1.6 1.3 2.6 3.3 2.8 5.4 0.4 3-1 5.9-3.4 7.6z"/>
			<path id="&lt;Path&gt;" class="s5" d="m623.7 291.5c-0.2 0.8-2.3 0.9-4.7 0.3-2.5-0.6-4.3-1.6-4.1-2.4 0.2-0.7 2.3-0.9 4.7-0.3 2.4 0.6 4.2 1.7 4.1 2.4z"/>
			<path id="&lt;Path&gt;" class="s5" d="m575.4 290.5c-0.2 0.4-1.5 0.5-3.1 0.1-1.6-0.3-2.8-1-2.7-1.5 0.1-0.5 1.5-0.6 3.1-0.2 1.6 0.4 2.8 1.1 2.7 1.6z"/>
			<path id="&lt;Path&gt;" class="s5" d="m558.7 298.4c-0.1 0.5-1.3 0.7-2.6 0.4-1.3-0.4-2.2-1-2.1-1.6 0.1-0.5 1.3-0.6 2.6-0.3 1.3 0.3 2.3 1 2.1 1.5z"/>
			<path id="&lt;Path&gt;" class="s19" d="m660.8 303.2c-0.2 0.8-1.7 1.1-3.4 0.7-1.7-0.4-2.9-1.3-2.7-2.1 0.2-0.8 1.7-1.1 3.4-0.7 1.6 0.4 2.8 1.3 2.7 2.1z"/>
			<path id="&lt;Path&gt;" class="s19" d="m614.8 296.7c-0.1 0.3-1.9 0.2-4.1-0.3-2.3-0.6-4-1.3-3.9-1.7 0.1-0.3 1.9-0.2 4.2 0.4 2.2 0.5 3.9 1.2 3.8 1.6z"/>
			<path id="&lt;Path&gt;" class="s19" d="m561.5 302.2c-0.1 0.2-1.1 0.2-2.2-0.1-1.2-0.3-2.1-0.7-2-0.9 0-0.2 1-0.1 2.2 0.2 1.1 0.2 2 0.6 2 0.8z"/>
			<path id="&lt;Path&gt;" class="s19" d="m631.1 305.8c1-1 2.4-1.4 3.9-1.3 1.4 0.2 2.7 0.9 3.5 2.1 0.4-0.6 1.3-0.7 1.9-0.3 0.6 0.5 0.8 1.3 0.3 2-0.4 0.6-1.2 0.8-1.9 0.4-1.8 1-4 0.8-5.6-0.6-0.3 0.8-1.1 1.2-1.9 1.1-0.8-0.1-1.4-0.8-1.4-1.6-0.1-0.8 0.4-1.5 1.2-1.8z"/>
			<path id="&lt;Path&gt;" class="s19" d="m559.8 309c0.5-1.2 1.4-2.2 2.6-2.7 1.2-0.5 2.6-0.5 3.8-0.1 0.8 0.3 1.2 1.1 1 1.9-0.2 0.8-0.9 1.3-1.7 1.2 0.6 0.8 0.6 1.9-0.2 2.6-0.7 0.6-1.9 0.6-2.6-0.1-0.2 2.9-2.2 5.4-5.1 6.2-1.3 0-2.5-1.1-2.5-2.4 0-1.4 1.1-2.6 2.5-2.6-0.8-0.4-1.3-1.1-1.4-2 0-0.8 0.5-1.7 1.2-2.1 0.7-0.4 1.7-0.4 2.4 0.1z"/>
			<path id="&lt;Path&gt;" class="s19" d="m602.7 304.9c-1.2 2.9-4.2 4.6-7.3 4.1-1-0.2-1.7-0.9-1.9-1.9-0.3-0.9 0.1-1.9 0.8-2.5 0.8-0.6 1.8-0.8 2.7-0.3-0.1-0.7 0.1-1.3 0.5-1.8 0.5-0.5 1.1-0.7 1.8-0.6 0-0.9 0.5-1.7 1.2-2.1 0.8-0.3 1.8-0.2 2.4 0.3-0.3-1 0.1-2.1 0.9-2.8 0.9-0.7 2-0.8 3-0.3 0.9 0.5 1.5 1.6 1.4 2.6 0.6-0.3 1.4-0.1 1.8 0.5 1.3-0.5 2.8-0.1 3.7 0.9 1 1 1.2 2.5 0.7 3.8-0.6 1.2-1.8 2.1-3.2 2.1-1.2 1.2-2.9 1.7-4.6 1.3-1.7-0.4-3-1.6-3.5-3.3z"/>
			<path id="&lt;Path&gt;" class="s2" d="m575.6 325.6c7.9 6.6 20.3 4.8 22.5 1 2.4 2.7 4.9 1.7 5.3 0.9 1 3.8 16.8 6.4 19.3 2.3 3.7 4 10 3.3 11.6 0.8-1.1 4.8-8.2 4.3-11.9 1.5-4.1 3.3-19.6 2.9-24.8-2.8-7.1 3.5-16.3 2.6-22-3.7z"/>
			<path id="&lt;Path&gt;" class="s2" d="m595.7 324.5c2.8 3.7 6.2 6.1 11.7 2.4-4.9 1.2-9.5-0.1-11.7-2.4z"/>
			<path id="&lt;Path&gt;" class="s2" d="m594.5 332.1c1.6 2.2 3.6 3.6 6.8 1.4-2.8 0.7-5.5 0-6.8-1.4z"/>
			<path id="&lt;Path&gt;" class="s2" d="m634.8 328c4.3 1.1 9.7-0.8 11-3.4 3.2 1 4.3 0 4.9-1.1 0.5-1.2 3.5 0.5 0.1 3.5q-3.4 3-5.3 0.6-4.1 2.8-10.7 0.4z"/>
			<path id="&lt;Path&gt;" class="s17" d="m563.1 316.3c3.1 2.5 4.5 0.9 5.6-1.3-1.1 5.6-4.7 4.5-5.6 1.3z"/>
			<path id="&lt;Path&gt;" class="s17" d="m590.4 315.5c2.1 1 5.3-0.4 6.3-2.6-3.4 5.8-4.4 4.9-6.3 2.6z"/>
			<path id="&lt;Path&gt;" class="s17" d="m611.4 317.1c2.3 0.8 4.6 1.1 7.7-1.5-1.6 4.8-6.1 4.2-7.7 1.5z"/>
			<path id="&lt;Path&gt;" class="s17" d="m628 315.2c2.2 1 5.7-0.7 7.5-2.5-4.2 6.1-7 3.4-7.5 2.5z"/>
			<path id="&lt;Path&gt;" class="s2" d="m549.5 324c2.2 2.1 5.8 3 7.7 1.9-5.5 3.8-7.5-0.5-7.7-1.9z"/>
			<path id="&lt;Path&gt;" class="s2" d="m571.9 328.8c1.8 0.7 3.4 0.1 4.1-1.1-1.2 4.4-3.9 1.9-4.1 1.1z"/>
			<path id="&lt;Path&gt;" class="s2" d="m636.7 330.4c1.8 0.7 3.7 0 4.5-1.2-0.8 3.7-3.7 2.2-4.5 1.2z"/>
			<path id="&lt;Path&gt;" class="s2" d="m625.3 338.2c2.8 0.9 5.2 1.7 8.3-1.6-3.1 5.3-5.6 4.2-8.3 1.6z"/>
			<path id="&lt;Path&gt;" class="s19" d="m563.6 336c-0.1 0.4-2.3 0.1-5-0.5-2.6-0.7-4.7-1.4-4.6-1.8 0.1-0.3 2.3 0 4.9 0.6 2.7 0.6 4.8 1.4 4.7 1.7z"/>
			<path id="&lt;Path&gt;" class="s19" d="m568.9 335.9c-0.1 0.3-1 0.3-2 0-1.1-0.2-1.9-0.7-1.9-0.9 0.1-0.3 1-0.3 2.1 0 1 0.3 1.9 0.7 1.8 0.9z"/>
			<path id="&lt;Path&gt;" class="s19" d="m628 343.5c0 0.2-0.6 0.3-1.3 0.1-0.7-0.2-1.2-0.5-1.2-0.7 0.1-0.2 0.7-0.2 1.3 0 0.7 0.1 1.3 0.4 1.2 0.6z"/>
			<path id="&lt;Path&gt;" class="s19" d="m652.1 340.7c-0.1 0.3-1.1 0.3-2.1 0.1-1.1-0.3-2-0.8-1.9-1.1 0.1-0.3 1-0.3 2.1-0.1 1.1 0.3 1.9 0.7 1.9 1.1z"/>
			<path id="&lt;Path&gt;" class="s5" d="m607.3 298.2c-0.1 0.2-0.6 0.3-1.2 0.2-0.5-0.1-0.9-0.4-0.9-0.7 0.1-0.2 0.6-0.3 1.2-0.2 0.5 0.2 0.9 0.5 0.9 0.7z"/>
			<path id="&lt;Path&gt;" class="s5" d="m613.4 302.2c-0.1 0.2-0.8 0.2-1.6 0-0.8-0.2-1.4-0.5-1.3-0.7 0-0.2 0.7-0.2 1.5 0 0.8 0.2 1.4 0.5 1.4 0.7z"/>
			<path id="&lt;Path&gt;" class="s5" d="m597.7 305.7c0 0.2-0.6 0.3-1.3 0.1-0.7-0.1-1.3-0.5-1.2-0.7 0.1-0.2 0.7-0.2 1.3-0.1 0.7 0.2 1.3 0.5 1.2 0.7z"/>
			<ellipse id="&lt;Path&gt;" class="s5" cx="564.9" cy="307.3" rx="1.5" ry=".7"/>
			<path id="&lt;Path&gt;" class="s5" d="m559.6 310c-0.1 0.3-0.5 0.5-1 0.3-0.5-0.1-0.8-0.4-0.7-0.7 0-0.3 0.5-0.5 1-0.3 0.4 0.1 0.8 0.4 0.7 0.7z"/>
			<ellipse id="&lt;Path&gt;" class="s5" cx="635.6" cy="306" rx="1.8" ry=".8"/>
			<ellipse id="&lt;Path&gt;" class="s5" cx="631" cy="299.2" rx="1.7" ry=".6"/>
			<path id="&lt;Path&gt;" class="s5" d="m659.9 302.7c-0.1 0.2-0.8 0.3-1.7 0.1-0.8-0.2-1.5-0.6-1.4-0.8 0.1-0.3 0.8-0.3 1.6-0.1 0.9 0.2 1.5 0.6 1.5 0.8z"/>
			<path id="&lt;Path&gt;" class="s19" d="m645.1 341.7c-4.3 1.9-8.9 2.9-13.5 2.9 2.9-1 4.3-3.1 8.2-3.2 1.9-0.1 3.6 0.1 5.3 0.3z"/>
		</g>
		<g id="&lt;Group&gt;">
			<path id="&lt;Path&gt;" class="s16" d="m575.2 218.8q0 0 0 0c-0.6 13.6-17.1 24.9-31.8 26.2 2 0.5 3.1 2.6 2.6 4.6-0.6 2-2.6 3.1-4.6 2.6 4.7 14.6-19 16.5-30.6-0.9-7.2 9.2-17.9 14.9-29.5 15.6-11.6 0.8-23-3.4-31.3-11.6-0.9 1.5-2.4 2.7-4.2 3-1.8 0.3-3.6-0.2-5-1.3-4.5 6.8-13.3 9.4-20.9 6.2-10.2 10.8-26.6 12.9-39.3 5.1-11.3 6.4-24.6 8.4-37.3 5.4 6.1 0.1 12.2-0.9 17.9-3.1 3.1-4.6 8.8-6.7 14.2-5.3 4.1-6 10.9-9.5 18.2-9.2 1.7-3.2 5.1-5.1 8.7-5.1 3.5 0.1 6.8 2.2 8.3 5.4 0.2-0.9 0.8-1.7 1.6-2.3 0.8-0.5 1.8-0.6 2.8-0.4-0.1-1 0.5-2.1 1.5-2.5 1-0.4 2.1-0.1 2.8 0.7 1.9-9.3 7.7-17.2 15.9-21.9 7.5-4.2 16.2-5.3 24.4-3.1q0 0 0 0c2.5 1.3 4.8 3 6.8 5.1 0.5-3.7 3.6-6.4 7.3-6.6 1.2-6.5 3.9-12.5 7.3-17.1 5.6-3.3 13-2.8 18.2 1.7-0.6-1.1-0.4-2.3 0.4-3.2 0.8-0.9 2.1-1.1 3.2-0.7-0.5-1.8 0.2-3.8 1.7-4.9 1.5-1.2 3.6-1.3 5.3-0.4-1.2-4.8 1.2-9.8 5.7-12 4.6-2.1 10-0.7 13 3.3 2.9-2.1 6.7-2.1 9.7-0.5 1.1 1.6 1.8 3.5 1.8 5.5 9.7-2.6 20.1 0.2 27.3 7.2 4.1 4 6.8 9.1 7.9 14.5z"/>
			<path id="&lt;Path&gt;" class="s9" d="m547.2 253.1c-2.4 9.1-9.8 21.9-37.1 7.7-21 17.5-39.2 9.3-70-0.1 2.5-0.8 7.5-2.6 9.9-9.5 2.3 8.1 12.3 13.2 24 11.2 11.6 9.4 32-4.7 37.4-15.8 9.2 23.9 27.9 10.9 27 4.3q7.1-4.1-1.8-10.1c7.2 2.7 27.5 0.9 35.9-11.8 0.2-0.2-2.4 24.5-25.3 24.1z"/>
			<path id="&lt;Path&gt;" class="s16" d="m588.4 264.6c-1.2 1.6-2.7 3-4.6 4.1-5.5 3.3-12.4 2.8-17.5-1.2-0.6 2.2-2 4.1-4 5.2-2 1.1-4.4 1.4-6.6 0.8 0 9-13.1 8.2-25.3 5-5.6-1.4-11.1-3.4-15-5.2 16.3 3.4 26.2 1.3 23.3-3.5 2.8 1.2 6 1 8.7-0.5 2.6-1.5 4.4-4.2 4.8-7.2 0.9 0 1.7-0.6 2-1.3 0.4-0.8 0.2-1.8-0.3-2.4 20.2 9.4 35.7-0.2 29.9-16.4 3.9 2.3 6.7 6.2 7.5 10.8 0.7 4.3-0.4 8.5-2.9 11.8z"/>
			<path id="&lt;Path&gt;" class="s18" d="m553.9 258.4c0.5 0.6 0.7 1.6 0.3 2.4-0.3 0.7-1.1 1.3-2 1.3-0.4 3-2.2 5.7-4.8 7.2-2.7 1.5-5.9 1.7-8.7 0.5 2.9 4.8-7 6.9-23.3 3.5-1.8-0.8-3.2-1.5-4.2-2.1-10.5 7-22.6 10.8-34.8 11.1-10.6-1.7-20.5-7-27.9-15.3-3.2 4.3-8.8 5.9-13.8 4-17 7.6-36.1 9.2-54.1 4.7-12.3 4.8-25.6 6.5-38.7 4.9-15.8 1.3-31.7-0.6-46.7-5.6-14.2 2.6-28.7 0.7-41.7-5.4 13.3 4.3 27.6 5 41.3 2.1 15.8 4.4 32.4 5.1 48.5 2 12.7 3 26 1 37.3-5.4 12.7 7.8 29.1 5.7 39.3-5.1 7.6 3.2 16.4 0.6 20.9-6.2 1.4 1.1 3.2 1.6 5 1.3 1.8-0.3 3.3-1.5 4.2-3 8.3 8.2 19.7 12.4 31.3 11.6 11.6-0.7 22.3-6.4 29.5-15.6 11.6 17.4 35.3 15.5 30.6 0.9 2 0.5 4-0.6 4.6-2.6 0.5-2-0.6-4.1-2.6-4.6 14.7-1.3 31.2-12.6 31.8-26.2 0.9 4.1 0.9 8.4-0.2 12.7 1.9 0.4 3.5 1.6 4.3 3.3 0.8 1.7 0.7 3.7-0.2 5.4q2.5 0.5 4.7 1.8c5.8 16.2-9.7 25.8-29.9 16.4z"/>
			<path id="&lt;Path&gt;" class="s19" d="m459.6 226.9c-8.2-2.2-16.9-1.1-24.4 3.1-8.2 4.7-14 12.6-15.9 21.9-0.7-0.8-1.8-1.1-2.8-0.7-1 0.4-1.6 1.5-1.5 2.5-1-0.2-2-0.1-2.8 0.4-0.8 0.6-1.4 1.4-1.6 2.3-1.5-3.2-4.8-5.3-8.3-5.4-3.6 0-7 1.9-8.7 5.1 0.9-4 4.1-7.1 8-7.9 4-0.9 8.1 0.5 10.6 3.7 0-1.9 0.8-3.7 2.3-4.9 1.5-1.3 3.4-1.8 5.3-1.4 2-10 9.4-18 19.2-20.8 7-2.1 14.3-1.2 20.6 2.1z"/>
			<path id="&lt;Path&gt;" class="s8" d="m538.2 191.6c-3-1.6-6.8-1.6-9.7 0.5-3-4-8.4-5.4-13-3.3-4.5 2.2-6.9 7.2-5.7 12-1.7-0.9-3.8-0.8-5.3 0.4-1.5 1.1-2.2 3.1-1.7 4.9-1.1-0.4-2.4-0.2-3.2 0.7-0.8 0.9-1 2.1-0.4 3.2-5.2-4.5-12.6-5-18.2-1.7 5.6-7.8 12.9-11.6 17.4-6.6-1.2-1.9-0.6-4.5 1.3-5.8 2-1.2 4.5-0.7 5.9 1.2-1.6-6 1.5-12.3 7.3-14.6 5.9-2.2 12.4 0.3 15.3 5.8 2.8-0.8 5.8-0.2 8.1 1.5q1.1 0.8 1.9 1.8z"/>
			<path id="&lt;Path&gt;" class="s2" d="m476.4 282.3c-10.6 0.3-21.3-2-31.2-6.9-0.6 0.8-1.5 1.2-2.5 1.2-1-0.1-1.9-0.5-2.5-1.3-19.4 6-40.1 6.1-59.6 0.4 18 4.5 37.1 2.9 54.1-4.7 5 1.9 10.6 0.3 13.8-4 7.4 8.3 17.3 13.6 27.9 15.3z"/>
			<path id="&lt;Path&gt;" class="s19" d="m386.6 263.5c1.2-1.9 3.2-3.2 5.5-3.5 2.3-0.3 4.5 0.4 6.2 1.9 0.5-1.1 1.8-1.6 2.9-1.1 1.1 0.5 1.7 1.7 1.2 2.9-0.4 1.1-1.7 1.7-2.8 1.3-2.4 2.3-6 2.8-8.9 1.2-0.1 1.3-1.2 2.3-2.5 2.4-1.2 0.1-2.4-0.7-2.8-1.9-0.4-1.2 0.1-2.6 1.2-3.2z"/>
			<path id="&lt;Path&gt;" class="s19" d="m429 244.1c-0.7-3.8 0.7-7.6 3.6-10.1 2.9-2.5 6.9-3.2 10.5-2 0.4-1.7 1.9-3 3.7-3 1.8 0 3.4 1.2 3.9 2.9 0.4 1.7-0.3 3.5-1.9 4.4-0.8 2-2.5 3.5-4.6 4.1-2.1 0.6-4.3 0.2-6.1-1.1-0.1 0.7-0.6 1.4-1.2 1.8-0.7 0.3-1.6 0.4-2.3 0 1 1.2 1.5 2.7 1.3 4.2-0.3 1.5-1.1 2.9-2.4 3.7-0.7 1.5-2.3 2.3-3.9 2-1.7-0.3-2.9-1.6-3-3.2-0.1-1.7 0.9-3.2 2.4-3.7z"/>
			<path id="&lt;Path&gt;" class="s19" d="m468.6 234.4c0.5-1 1.5-1.6 2.5-1.5 1.1 0.1 2 0.9 2.2 1.9 0.3 1-0.2 2.1-1.1 2.7 0.3 1.3-0.4 2.6-1.6 3.1-1.3 0.5-2.7 0-3.4-1.1-0.5 1.1-1.7 1.7-2.9 1.6-1.2-0.1-2.3-0.9-2.6-2.1-1-0.1-1.8-0.8-2.1-1.7-0.3-0.9-0.1-1.9 0.5-2.7 0.6-0.7 1.6-1.1 2.5-0.9 2-1.2 4.4-0.9 6 0.7z"/>
			<path id="&lt;Path&gt;" class="s19" d="m480.9 216.8c0.3-1.7 1.2-3.3 2.5-4.3 1.4-1 3.2-1.5 4.9-1.2 1 0.1 1.8 1 1.8 2 0 1.1-0.8 2-1.8 2.1 1 0.8 1.3 2.3 0.5 3.3-0.7 1.1-2.2 1.4-3.3 0.7 0.6 3.9-1.2 7.7-4.6 9.6-1.7 0.4-3.5-0.7-3.9-2.4-0.5-1.8 0.6-3.6 2.3-4-1.1-0.3-2-1.1-2.3-2.2-0.3-1.1 0-2.2 0.8-3 0.9-0.8 2-1 3.1-0.6z"/>
			<path id="&lt;Path&gt;" class="s19" d="m516.7 210.1c-0.7 5.1-4.9 9-10.1 9.4-1.6 0-3.1-0.9-3.8-2.3-0.7-1.4-0.6-3.1 0.4-4.4 1-1.3 2.6-1.9 4.2-1.5-0.5-1-0.5-2.1 0.1-3.1 0.5-0.9 1.5-1.5 2.6-1.6-0.4-1.4 0.1-2.8 1.2-3.8 1.1-0.9 2.6-1.1 3.9-0.5-0.8-1.5-0.7-3.4 0.4-4.8 1.1-1.4 2.9-2 4.6-1.6 1.7 0.5 3 1.9 3.3 3.7 0.9-0.8 2.2-0.8 3.1 0 1.9-1.2 4.3-1.2 6.2 0.1 1.9 1.2 2.8 3.5 2.5 5.7-0.4 2.2-2.1 4-4.3 4.6-1.4 2.4-4 3.9-6.8 3.9-2.8 0-5.4-1.5-6.8-3.9z"/>
			<path id="&lt;Path&gt;" class="s9" d="m442 246.8c4.8 1.4 10.1 0 13.4-3.8 3.9 3.7 9.1 5.6 14.5 5.3 5.3-0.4 10.3-3 13.6-7.2 3.2 0.3 6.1-2 6.6-5.3 3.8 0.1 7.4-0.9 10.6-2.9 2 2.1 5.1 2.6 7.7 1.3 2.5-1.3 3.9-4.2 3.3-7 1.4 0.2 2.7-0.2 3.7-1.1 1-0.9 1.5-2.2 1.5-3.5 9.8-2.5 17.8 8.6 22.5-2.5 11.7 6.9 13.8-0.3 11.7-6-2-5.8 4.5-9.5 11.1 0.9 6.6 10.5-12.9 24.1-39 16.1 0.6 1.4 0.4 3.1-0.4 4.4-0.9 1.3-2.4 2.1-4 2.2-6.8 5.5-16.1 6.9-24.2 3.4-7.7 9.8-20.9 13.3-32.4 8.7-2.6 0.2-5.3-0.6-7.4-2.3-4.2 1.7-8.9 1.4-12.8-0.7z"/>
			<ellipse id="&lt;Path&gt;" class="s9" cx="517.8" cy="183.9" rx="4.2" ry="1.3"/>
			<ellipse id="&lt;Path&gt;" class="s5" cx="529" cy="201.1" rx="4.2" ry="1.3"/>
			<ellipse id="&lt;Path&gt;" class="s5" cx="438.6" cy="234.2" rx="4.2" ry="1.3"/>
			<ellipse id="&lt;Path&gt;" class="s9" cx="502.7" cy="197.1" rx="1.8" ry=".8"/>
			<ellipse id="&lt;Path&gt;" class="s5" cx="447" cy="230.8" rx="1.8" ry=".8"/>
			<ellipse id="&lt;Path&gt;" class="s5" cx="487" cy="213.1" rx="1.8" ry=".8"/>
			<ellipse id="&lt;Path&gt;" class="s5" cx="464.2" cy="234.9" rx="1.8" ry=".8"/>
			<ellipse id="&lt;Path&gt;" class="s5" cx="519.4" cy="197.7" rx="1.8" ry=".8"/>
			<ellipse id="&lt;Path&gt;" class="s9" cx="494.4" cy="201.4" rx="2.2" ry=".7"/>
			<ellipse id="&lt;Path&gt;" class="s5" cx="417.1" cy="247.7" rx="1.5" ry=".8"/>
			<ellipse id="&lt;Path&gt;" class="s5" cx="404.9" cy="249.4" rx="1.9" ry=".5"/>
			<ellipse id="&lt;Path&gt;" class="s19" cx="403.5" cy="254.2" rx="4" ry="1.4"/>
			<ellipse id="&lt;Path&gt;" class="s19" cx="371.9" cy="266.6" rx="3.7" ry=".6"/>
			<ellipse id="&lt;Path&gt;" class="s19" cx="520.1" cy="190" rx="3.2" ry="1.1"/>
			<ellipse id="&lt;Path&gt;" class="s19" cx="534.7" cy="192.1" rx="2.2" ry=".8"/>
			<ellipse id="&lt;Path&gt;" class="s19" cx="507.6" cy="202.2" rx="1.9" ry=".8"/>
			<ellipse id="&lt;Path&gt;" class="s19" cx="491.1" cy="208.1" rx="2.3" ry=".7"/>
			<ellipse id="&lt;Path&gt;" class="s19" cx="548.5" cy="200" rx="7.5" ry="2.5"/>
			<path id="&lt;Path&gt;" class="s16" d="m560.9 215.2c-0.4 0.3-1.7-0.6-2.9-2.1-1.3-1.4-2-2.8-1.7-3.1 0.3-0.3 1.6 0.6 2.9 2.1 1.2 1.4 2 2.8 1.7 3.1z"/>
			<ellipse id="&lt;Path&gt;" class="s18" cx="505" cy="241.5" rx="3.5" ry=".8"/>
			<ellipse id="&lt;Path&gt;" class="s18" cx="540.1" cy="231.8" rx="5.5" ry=".9"/>
			<ellipse id="&lt;Path&gt;" class="s18" cx="472.5" cy="250.5" rx="3.5" ry=".8"/>
			<ellipse id="&lt;Path&gt;" class="s19" cx="427.5" cy="261.4" rx="6.1" ry="2.1"/>
			<ellipse id="&lt;Path&gt;" class="s19" cx="396.8" cy="271.2" rx="5.9" ry="1.2"/>
			<path id="&lt;Path&gt;" class="s2" d="m551.8 254.6q-1.3 5.7-8.9 7.4c3.8-2.3 4.4-2.8 7.2-10.6 8.2 1.3 20.3-0.1 23.7-12.9q-1 20.1-22 16.1z"/>
			<path id="&lt;Path&gt;" class="s2" d="m485.1 270.2c7.9 4.9 23.1-0.9 26.7-5.9 3.5-4.9 5.3 1.1 2 3.2q-3.2 2.2-4.4 0.8-13.5 9.1-24.3 1.9z"/>
			<path id="&lt;Path&gt;" class="s2" d="m514.5 264.9c3-2.6 8.1-0.9 14.5 2.5q6.4 3.4 8.7-1.7 1.1 6.1-8.7 4.7-9.8 2.6-10-3.7-4.3 4.1-4.5-1.8z"/>
			<path id="&lt;Path&gt;" class="s2" d="m447.9 264.3q-5.8 4.1-13.1 0.8 8.5 0.8 13.1-4.3c3.3 3.9 12.8 9.8 22.9 7.6-7.2 2.4-18.2 1.2-22.9-4.1z"/>
			<path id="&lt;Path&gt;" class="s9" d="m450.6 241.7c4.2 1.9 7.9 0 9.2-1.9-1.4 6.4-7.9 4.7-9.2 1.9z"/>
			<path id="&lt;Path&gt;" class="s9" d="m482.7 236.6c5.5 0.1 8.7-2 8.6-8.7 5.2 0.6 8.8-0.6 9.3-4.4 0.2 4.8-3.7 6.5-7 6.2-0.4 5.8-2.9 9-10.9 6.9z"/>
			<path id="&lt;Path&gt;" class="s9" d="m506.6 245.4c3 2.2 5.6 2.2 8.1-1.5 2.6 2.3 5.1 3 6.8 1.1-1.7 2.7-4.5 2.2-6.3 0.7-2.4 3.1-5 3.9-8.6-0.3z"/>
			<path id="&lt;Path&gt;" class="s9" d="m467.6 255c4.5 2.2 8.4 2.2 12-1.5 4 2.3 7.7 3.1 10.2 1.3-2.5 2.6-6.7 2.1-9.4 0.6-3.5 3-7.4 3.8-12.8-0.4z"/>
			<path id="&lt;Path&gt;" class="s9" d="m485 253.6c3.4 1.4 6 1.1 8.2-2.1 2.9 1.5 5.6 1.8 7.1 0.1-1.5 2.3-4.4 2.2-6.4 1.3-2.1 2.7-4.7 3.6-8.9 0.7z"/>
			<path id="&lt;Path&gt;" class="s9" d="m530.9 239.5c3 2.2 5.6 2.2 8.1-1.5 2.6 2.3 5.1 3 6.8 1.1-1.7 2.7-4.5 2.2-6.3 0.7-2.4 3.1-5 3.9-8.6-0.3z"/>
			<path id="&lt;Path&gt;" class="s9" d="m511.3 220.9c3.5 1.6 6.2 1.7 8.4-1.6-1.6 6.1-4.1 4.4-8.4 1.6z"/>
			<path id="&lt;Path&gt;" class="s9" d="m496.8 231.6c2.4 1.2 4.5 1.5 6.3-0.2-1.6 3.3-3.3 2.1-6.3 0.2z"/>
			<path id="&lt;Path&gt;" class="s9" d="m525.8 216.8c5.2 4.4 6.9 3.1 9.5-0.5 3.2 4.4 8.6 2.4 9.4-0.1-2.3 7.3-8.6 3.8-9.2 2.8-2.9 3.7-7.6 2.4-9.7-2.2z"/>
			<path id="&lt;Path&gt;" class="s2" d="m462.3 273c6 0.8 6.6 0.5 9.2-0.6 2.5-1.1 5.9 3.9 8.4 2.5 2.6-1.3 8.1 1.9 1.3 2.6-6.8 0.7-5.4-4.9-8.7-3.2-3.3 1.7-12.7-1.6-10.2-1.3z"/>
			<ellipse id="&lt;Path&gt;" class="s5" cx="549.2" cy="198.7" rx="4.2" ry="1.3"/>
			<ellipse id="&lt;Path&gt;" class="s9" cx="526.7" cy="257.9" rx="4.5" ry=".6"/>
			<ellipse id="&lt;Path&gt;" class="s9" cx="483.6" cy="264.4" rx="3.2" ry=".6"/>
			<path id="&lt;Path&gt;" class="s2" d="m588.4 264.6c-1.2 1.6-2.7 3-4.6 4.1-5.5 3.3-12.4 2.8-17.5-1.2-0.6 2.2-2 4.1-4 5.2-2 1.1-4.4 1.4-6.6 0.8 0 9-13.1 8.2-25.3 5 18.6 2 23.3-0.5 23.2-7.9 3.6 3 11.3 2.3 12-5.9 4.1 3.5 16 5.2 22.8-0.1z"/>
		</g>
		<g id="&lt;Group&gt;">
			<path id="&lt;Path&gt;" class="s9" d="m429.1 149.8c-1.1-2-3.5-3.2-5.8-2.8-2.3 0.5-4.1 2.3-4.4 4.6-0.2-1.4-1.1-2.7-2.3-3.4-1.3-0.7-2.9-0.8-4.2-0.1 0.3-0.5 0.3-1 0.1-1.5-0.2-0.5-0.6-0.9-1.1-1 0-1-0.5-1.8-1.3-2.3-0.8-0.5-1.8-0.5-2.6-0.1 5.3-3.2 8.7-17.6-13-8.6 10.4-9.5 28.4-4.3 20.9 10.6 1.6-0.8 3.6-0.2 4.6 1.4 1.3-1.9 3.6-2.6 5.8-1.8 2.1 0.7 3.4 2.8 3.3 5z"/>
			<path id="&lt;Path&gt;" class="s8" d="m450 159.7c2.1 1.8-8.4 0.9-14.7 0-11.1 1.5-15.1 1.1-9.6-0.4-5-1.8-26.2 2-24.1 0.1-5.7 1.4-9.7 0.7-4.9-0.9-7.2-1-12.3 2.1-16.2 0.5-10.2 3.3-13.7 0.4-7.1-4 1.6-0.2 3.5-0.1 5.6 0.2-1.2-2.4-0.6-5.4 1.5-7.2 2.1-1.8 5.1-1.9 7.4-0.3 0.8-5.9 3.3-10.2 6.6-13.1 21.7-9 18.3 5.4 13 8.6 0.8-0.4 1.8-0.4 2.6 0.1 0.8 0.5 1.3 1.3 1.3 2.3 0.5 0.1 0.9 0.5 1.1 1 0.2 0.5 0.2 1-0.1 1.5 1.3-0.7 2.9-0.6 4.2 0.1 1.2 0.7 2.1 2 2.3 3.4 0.3-2.3 2.1-4.1 4.4-4.6 2.3-0.4 4.7 0.8 5.8 2.8 1.9-1.1 4.3-1.1 6.3 0 1.9 1.1 3.1 3.2 3.1 5.4 3.8 2.3 10.7 2.4 16.6 2.2 13.4 3.3 1.4 2.4-5.1 2.3z"/>
			<path id="&lt;Path&gt;" class="s10" d="m497.7 162.6c-15.4 2.9-38.7-0.2-43.9-0.1-5.2 0.2-32 2.7-44.3 1-12.4-1.8-26.6-0.2-36 0.7-7.8 0.7-9.5-0.6-14.7-0.9-0.7-0.1-0.9-0.9-0.3-1.3 1.6-1 2.9-2.1 8.5-1.7-1.9-1.3 0.6-4.7 6.4-5.3-6.6 4.4-3.1 7.3 7.1 4 3.9 1.6 9-1.5 16.2-0.5-4.8 1.6-0.8 2.3 4.9 0.9-2.1 1.9 19.1-1.9 24.1-0.1-5.5 1.5-1.5 1.9 9.6 0.4 6.3 0.9 16.8 1.8 14.7 0 6.5 0.1 18.5 1 5.1-2.3 6.5-0.3 11.7-1.1 10.3-0.1-2.8 2.1 0.1 3.7 10.2 3.7 7.5 0 17.6 0.6 22.1 0.9 0.4 0 0.4 0.6 0 0.7z"/>
			<ellipse id="&lt;Path&gt;" class="s16" cx="414.4" cy="135.9" rx="1.2" ry="2"/>
			<path id="&lt;Path&gt;" class="s16" d="m419 146.4c0 0.3-0.6 0.6-1.4 0.6-0.8 0-1.4-0.3-1.4-0.6 0-0.3 0.6-0.6 1.4-0.6 0.8 0 1.4 0.3 1.4 0.6z"/>
			<path id="&lt;Path&gt;" class="s16" d="m425.9 145.5c0 0.4-0.6 0.6-1.3 0.6-0.7 0-1.3-0.2-1.3-0.6 0-0.3 0.6-0.6 1.3-0.6 0.7 0 1.3 0.3 1.3 0.6z"/>
			<ellipse id="&lt;Path&gt;" class="s9" cx="407.7" cy="134" rx="3.9" ry="1.3"/>
			<ellipse id="&lt;Path&gt;" class="s16" cx="426.1" cy="148.6" rx="2.2" ry="1"/>
			<ellipse id="&lt;Path&gt;" class="s9" cx="434.1" cy="150.9" rx="1.9" ry=".9"/>
			<ellipse id="&lt;Path&gt;" class="s9" cx="384.9" cy="148.9" rx="3" ry="1.3"/>
			<path id="&lt;Path&gt;" class="s9" d="m379 156c0 0.2-1.1 0.4-2.5 0.4-1.3 0-2.4-0.2-2.4-0.4 0-0.3 1.1-0.5 2.4-0.5 1.4 0 2.5 0.2 2.5 0.5z"/>
			<ellipse id="&lt;Path&gt;" class="s9" cx="401.5" cy="138.2" rx="7.3" ry="1.8"/>
			<ellipse id="&lt;Path&gt;" class="s9" cx="397.8" cy="140.6" rx="5.7" ry="1.4"/>
			<ellipse id="&lt;Path&gt;" class="s9" cx="398.7" cy="149.8" rx="7.6" ry="2.2"/>
			<ellipse id="&lt;Path&gt;" class="s9" cx="406.9" cy="151.6" rx="6" ry="1.8"/>
			<ellipse id="&lt;Path&gt;" class="s16" cx="400.1" cy="149.1" rx="3.6" ry=".5"/>
			<ellipse id="&lt;Path&gt;" class="s16" cx="402.3" cy="137.7" rx="3.1" ry=".5"/>
			<path id="&lt;Path&gt;" class="s16" d="m411 151c0 0.1-0.8 0.3-1.8 0.3-0.9 0-1.7-0.2-1.7-0.3 0-0.2 0.8-0.4 1.7-0.4 1 0 1.8 0.2 1.8 0.4z"/>
			<path id="&lt;Path&gt;" class="s16" d="m386.9 149c0 0.2-0.5 0.4-1.2 0.4-0.6 0-1.2-0.2-1.2-0.4 0-0.3 0.6-0.5 1.2-0.5 0.7 0 1.2 0.2 1.2 0.5z"/>
		</g>
	</g>
	<path id="&lt;Compound Path&gt;" fill-rule="evenodd" class="s20" d="m505.8 390.7c-7.2 0-10.7 0.1-16.9 1.2-7.7 1.4-20.3 0.4-25.6 0-5.4-0.3-15.5-1.4-5.8-3.4-14.5-0.5-16.2 1.7-32.5 1.8-12.3 0-27.8-1.3-40.1-1.7-1.1 0-1.2-1.6-0.1-1.8q4.2-0.4 8.2-0.6c10.2-0.5 18.8 0.2 22.7 0.1-3.8-0.4-6.9-0.7-9.3-1-1.1-0.2-1-1.8 0.1-1.9 7.5-0.4 19.1-0.7 28.4 0.5 1.7-3.2 5.6-4.5 8.8-3 0.4-2.3 2.1-4.1 4.4-4.8 2.2-0.5 4.6 0.2 6.1 2 0.1-0.5 0.5-1 1-1.2 0.5-0.2 1.1-0.2 1.6 0.1 3.2-10.2 19.1-10.6 20.3 4.4 1.5-0.7 3.2-0.6 4.6 0.2 1.4 0.9 2.2 2.4 2.1 4 7.3-2.3 11.4 3.1-0.7 2.8 2 0.2 4.2 0.4 6.4 0.6 5.4 0.4 11.1 0.7 16.3 1.1 0.4 0 0.4 0.6 0 0.6zm-126-15.4c1.6 1.6-12.8 1.6-21.7 1.1-2.2-0.1-3.9-2-3.8-4.1q0-0.8 0.3-1.5c0.6-1.3 1.6-2.5 3-3.3 3-1.7 6.8-0.9 8.9 1.9 0.8-3.4 3.9-5.8 7.4-5.8 3.5 0 6.6 2.4 7.4 5.9 0.4-0.2 0.8-0.1 1.1 0.2 0.3 0.2 0.5 0.6 0.5 1 5.6-2.5 7.6 0.1 7.5 1.7 1.3 0.1 2.9 0.5 4.2 1q0.2 0.1 0.4 0.3c0.3 0.4 0 1.1-0.6 1.2-3.6 0.4-9.9 1-14.6 0.4zm195.4-156.5q0 0 0 0c0.9 4.1 0.9 8.4-0.2 12.7 1.9 0.4 3.5 1.6 4.3 3.3 0.8 1.7 0.7 3.7-0.2 5.4q2.5 0.5 4.7 1.8 2.6 7.3 3.6 10.2-1-2.9-3.6-10.2c3.9 2.3 6.7 6.2 7.5 10.8 0.7 4.3-0.4 8.5-2.9 11.8-1.2 1.6-2.7 3-4.6 4.1-5.5 3.3-12.4 2.8-17.5-1.2-0.6 2.2-2 4.1-4 5.2-2 1.1-4.4 1.4-6.6 0.8 0 9-13.1 8.2-25.3 5-5.6-1.4-11.1-3.4-15-5.2q2.1 0.4 4 0.8-1.9-0.4-4-0.8c-1.8-0.8-3.2-1.5-4.2-2.1-10.5 7-22.6 10.8-34.8 11.1-10.6 0.3-21.3-2-31.2-6.9-0.6 0.8-1.5 1.2-2.5 1.2-1-0.1-1.9-0.5-2.5-1.3-19.4 6-40.1 6.1-59.6 0.4-12.3 4.8-25.6 6.5-38.7 4.9-15.8 1.3-31.7-0.6-46.7-5.6-14.2 2.6-28.7 0.7-41.7-5.4 13.3 4.3 27.6 5 41.3 2.1 15.8 4.4 32.4 5.1 48.5 2 6.1 0.1 12.2-0.9 17.9-3.1 3.1-4.6 8.8-6.7 14.2-5.3 4.1-6 10.9-9.5 18.2-9.2 0.9-4 4.1-7.1 8-7.9 4-0.9 8.1 0.5 10.6 3.7 0-1.9 0.8-3.7 2.3-4.9 1.5-1.3 3.4-1.8 5.3-1.4 2-10 9.4-18 19.2-20.8 7-2.1 14.3-1.2 20.6 2.1q0 0 0 0c2.5 1.3 4.8 3 6.8 5.1 0.5-3.7 3.6-6.4 7.3-6.6 1.2-6.5 3.9-12.5 7.3-17.1 5.6-7.8 12.9-11.6 17.4-6.6-1.2-1.9-0.6-4.5 1.3-5.8 2-1.2 4.5-0.7 5.9 1.2-1.6-6 1.5-12.3 7.3-14.6 5.9-2.2 12.4 0.3 15.3 5.8 2.8-0.8 5.8-0.2 8.1 1.5q1.1 0.8 1.9 1.8c1.1 1.6 1.8 3.5 1.8 5.5 9.7-2.6 20.1 0.2 27.3 7.2 4.1 4 6.8 9.1 7.9 14.5zm-5.6 158.5c-0.1 0.9-0.8 1.5-1.7 1.6q-9.7 0.3-19.8-0.4 2 0.9 4.7 1.7c0.2 0.1 0.4 0.4 0.3 0.7 0 0.2-0.3 0.4-0.5 0.4-8.8-0.3-21.3-0.9-31.2 0.2-0.3 0.1-0.7-0.2-0.8-0.6-0.1-0.3 0.1-0.7 0.4-0.9q0.5-0.3 1-0.5c0.3-0.2 0.4-0.6 0.3-1-0.1-0.3-0.5-0.5-0.9-0.4-3.2 0.8-7.9 1.7-13.8 2-0.1 0-0.2-0.1-0.3-0.2 0-0.2 0-0.3 0.2-0.4 0.2-0.1 0.3-0.3 0.2-0.5 0-0.2-0.2-0.3-0.4-0.3-12.6 1.2-20.6-0.2-26.4-2.3-1.9-0.7-1.7-3.4 0.3-3.7q1.9-0.3 3.7-0.7 2.5-0.5 4.6-1c-1-6.6 3.2-12.9 9.7-14.4 6.5-1.5 13 2.3 15 8.6 1.1-1.1 2.6-1.8 4.2-1.8 1.6 0 3.2 0.7 4.3 1.9 1.1-3.2 3.9-5.6 7.3-6.1 3.3-0.6 6.8 0.7 8.9 3.3 2.2 2.7 2.7 6.3 1.5 9.4 15.4 0.2 22.1 2 27.8 3.5q0 0 0.1 0c0.8 0.2 1.4 1 1.3 1.9zm29.7-11.2c-10.1 1.3-23.1 2.1-28.7 2.2-5.7 0-10.7 0.4-7.9-2-5.1 0.4-11.8-0.5-15.2-2.3-0.7-0.4-0.8-1.3 0-1.7q0.2-0.1 0.5-0.2c1.4-0.5 3.2-1 5.2-0.8 1.4-3.4 4.5-5.7 8.2-6.2 3.6-0.5 7.2 1 9.4 3.9 0.3-1.8 1.7-3.1 3.5-3.2 1.8-0.1 3.4 1.1 3.9 2.8 10.1-3.1 14.4 2.8 9.4 5.3 2.9 0 5.8 0.7 9.1 1.1q1.3 0.2 2.6 0.3c0.4 0.1 0.4 0.7 0 0.8zm-238 20.6c0 0.2-0.2 0.3-0.3 0.3-6.2 0.4-14 1.4-21 3.2-5.8 1.6-19 1.2-33.8 2-8.5 0.5-17.6 1.4-26.2 3.2-23.4 5-52.7 2.2-63.7-2.8-1.4-0.7-2.6-1.2-3.7-1.7-7.5-3.5-9.1-4.1-21-6-11.2-1.7-17.5-4.3-31-7.1-0.2-0.1-0.3-0.3-0.3-0.5 0.1-0.2 0.3-0.4 0.5-0.3 15.3 1.8 38.7 5.2 50.6 5.7 0.3 0.1 0.6-0.2 0.7-0.5 0.1-0.4-0.1-0.7-0.5-0.8-5.7-2.1-13.5-3.3-20.4-4.7-0.2-0.1-0.3-0.2-0.3-0.4 0.1-0.1 0.2-0.2 0.4-0.2 7.7 1.1 16.6 1.8 18.6 1.9 12.9 1.2 15.9 5.4 36.2 7.8-0.1-3.8 5.7-8.9 20.1-2.3-7-10.6 7.6-7.9 22.7 0.2-0.9-3.7 3.9-5.7 8.1-2.2 2.1-5.5 17.3 0.3 7 3.2 25.6 7.6 35.5 0.6 57 1.7 0.1 0 0.3 0.1 0.3 0.3zm-189.7-30.8c-8.9-2.3-17.3-5.9-26.5-3.5-0.8 0.2-1.9 0.4-3.2 0.5-9.4 0.7-27.7 0.6-32.6-6.4-0.5-0.7-1.7-1.4-2.8-1-3.4 1.3-7.1 1.9-10.8 1.7-4.8-0.2-9.4-1.6-13.5-4.3-3.9-1.3-6.9-4.3-8.3-8-1.3-3.7-0.8-7.8 1.4-11.1-9.9 3.2-21.9 2.3-30.6-4-3.5-0.6-6.2-3.2-7-6.6-0.7-3.3 0.6-6.7 3.4-8.7 2.8-2 6.6-2.2 9.6-0.5 3.4-6 10.2-9.3 17-8.4q1.5 0.2 3 0.7c5.1 1.5 10 6.9 11 12.1 1.7-4.9 5.7-10.4 9.9-13.5q2.4-1.8 5-3.2c2.7-1.3 5.6-2.5 8.4-2.9 9.8-1.4 17.3 0.8 26.1 6.5q1.6 1.4 3 2.9c5-6.1 13-9.1 20.8-8q0 0 0 0 0 0 0.1 0.1c7.8 1.2 14.5 6.5 17.4 13.8 1.2-2.1 3.4-3.4 5.8-3.5 2.4-0.2 4.7 0.9 6.2 2.8 3.1-1 6.5-0.7 9.3 1 2.8 1.7 4.8 4.5 5.3 7.7 9.3-5.3 22.6-3.3 29.1 5.7 6.1-3.4 12-6.4 19.1-7.1 7.5-0.9 15 0.2 21.9 3q1.1-2 2.7-3.6 1.2-1.2 2.7-2.2 2.1-1.4 4.6-2.3c5.2-1.6 10.8-0.9 15.3 2.1q1 0.6 1.9 1.4c2.5-3.8 6.9-6.1 11.5-5.8q0 0 0 0 0 0 0 0c4.6 0.2 8.7 2.8 10.8 6.9 0.6-1.3 1.8-2.2 3.1-2.4 1.4-0.2 2.8 0.3 3.7 1.3 1.8-0.8 3.8-0.8 5.5 0 1.7 0.9 2.9 2.4 3.4 4.2 5.3-3.7 12.5-2.9 17 1.8 3.2-2.6 6.8-4.2 10.6-5 8.2-1.6 16.8 1 22.7 6.9 0.9-1.1 2.3-1.6 3.7-1.3 1.4 0.3 2.5 1.2 2.9 2.6 4.4-3.4 12.1-2.8 15.9 1.2 1.1 0.7 1.9 1.5 2.5 2.5 1.5 2.3 1.7 5.4 0.1 8-2.2 3.6-7 4.8-10.7 2.6-2.8 2.6-7.2 2.7-10.2 0.3-0.9 0.9-2 1.7-3.3 2.3-2.6 1.2-5.7 1.3-8.6 0.1-10.6 7-17.7 0.2-27.7 2.2-6.3 1.2-12.6 2.5-19 2.7 0.8 3.5 0.2 7.3-2 10.4-4.4 6-12.8 7.5-19.1 3.5-5.3 4.2-12.8 3.9-17.8-0.7-1.8 1.6-3.8 2.8-6 3.6-4.8 1.8-10.3 1.7-15.1-0.7-10.1 4.4-18.7 6.5-29.5 4-6.4-1.5-12.5-5.3-19.4-4.1-16.8 2.9-33.1 3.8-49.7-0.3zm589.6 19.2c-6.4 0.4-8.5 2-18 1.1-11.5-1-28.9-2.9-44-0.8-15.1 2.1-48-1-54.4-1.2-6.3-0.2-34.8 3.6-53.7 0.1-0.5-0.1-0.5-0.8 0-0.8 5.5-0.4 17.9-1.2 27.1-1.2 12.3 0 15.9-1.9 12.5-4.4-1.8-1.4 4.7-0.4 12.6 0 7.2 0.3 15.6 0.2 20.3-2.6 0-2.8 1.4-5.3 3.8-6.7 2.4-1.3 5.4-1.3 7.7 0.1-0.1-2.8 1.5-5.3 4.1-6.2 2.6-1 5.5-0.1 7.1 2.2 1.1-2 3.6-2.7 5.6-1.7-9.1-18.3 12.8-24.7 25.6-13 4 3.5 7.1 8.8 8.1 16 2.8-1.9 6.5-1.7 9 0.5 2.6 2.1 3.3 5.8 1.8 8.8 2.6-0.5 4.9-0.6 6.9-0.4 7.1 0.8 10.2 5 7.9 6.6 6.9-0.5 8.4 0.9 10.4 2.1 0.7 0.4 0.4 1.5-0.4 1.5zm-290-223q1.9-0.1 3.7-0.4c4.8-0.7 9-1.6 13.3-1.6-7.3-3.7-1-12.3 13.7-7.8 0.7-2.5 3-4.2 5.6-4.1 2.6 0.2 4.8 2.1 5.2 4.7 3.2-4.2 8.5-6.3 13.7-5.7 5.3 0.7 9.8 4.1 11.9 9 2.9-0.3 5.6 0.5 7.7 1.3q0.4 0.1 0.7 0.3c1.1 0.4 0.9 1.8-0.1 2.4-4.9 2.6-14.6 3.9-22.2 3.4 4.2 3.4-3.1 2.9-11.4 2.8-8.1-0.1-27.2-1.3-41.8-3.2-0.7-0.1-0.7-1 0-1.1zm-424.2 91.5c-9.6-0.4-18.3-5.9-22.8-14.4-6.4-0.7-18.8-10.6-12.3-22 3.5-6.1 12.3-12.6 30.4-18.4-4.6-1.5-8-5.5-8.6-10.4-0.7 1.6-1.9 2.8-3.3 3.7-1.9 1.2-4.2 1.8-6.6 1.4-4.1-0.7-7.2-3.9-7.8-8-5.5 0.5-10.8-2.3-13.5-7.2-2.6-4.9-2.1-10.9 1.3-15.3 1.9-2.3 4.4-3.9 7.1-4.7 2.4-0.7 4.9-0.8 7.4-0.1-1.2-5.4 0.8-11 5.1-14.5q0.4-0.4 1-0.8c2.5-1.7 5.4-2.6 8.4-2.6q3 0.1 5.8 1.3c0.3-1.2 0.9-2.2 1.7-3.1-3.8-4-5.5-9.8-4.2-15.4 0.5-2.3 1.5-4.4 2.8-6.2 3-4.1 7.7-6.8 13-7.1-2.6-1.5-4-4.6-3.5-7.6 0.6-3 3-5.3 6-5.8-5.8-5.3-7.8-13.7-4.8-21.1 2.9-7.3 10.1-12.1 18-11.9-5-7.4-2.1-22.9 4.2-13.4 1.5-13.9 10.6-28.3 19.2-16-0.3-4.3 2.4-8.2 6.6-9.4 4.1-1.3 8.6 0.5 10.7 4.3 1.4-6.7 7-11.7 13.9-12.3 6.8-0.6 13.3 3.4 15.8 9.8 1.6-1.8 4.3-2 6.3-0.6-0.5-6.9 4.2-13.1 11-14.5 6.8-1.4 13.6 2.3 16 8.8 2.3-1.3 5.2-1.1 7.3 0.4 2.1 1.7 3 4.4 2.3 7 9.4-0.7 17.9 5.6 20 14.8 2.1 9.3-3 18.7-11.9 22 2.5 0 4.8 1.4 5.8 3.7 1 2.2 0.6 4.9-1.1 6.7 3.4-1 6.5-1.5 9.3-1.6 16.6-0.5 23.3 14.1 14.4 30.1-4.7 8.6-13.8 17.5-28.3 24.9 4.3 2.4 7 6.9 6.8 12 2.2-1.3 4.9-1.5 7.4-0.6 2.4 1 4.3 3 5.1 5.5 8.9-11.7 22.9-18.2 37.6-17.5 14.7 0.8 28 8.6 35.7 21.1 3.9-2 8.6-1.3 11.7 1.8 3.1 3.1 3.7 7.9 1.6 11.7 8.7-4.3 19.1-3.7 27.2 1.7 8.2 5.4 12.8 14.7 12.2 24.5q10.7-1.8 5.6 9.7c17.2 0.8 15.3 11.5 28.7 20.5q0.5 0.3 0.9 0.5c9.1 5.8 17.5 5.2 24.9 0.9 1.5-0.9 3 1.1 1.8 2.3-12.1 11.1-24.9 3.3-28 11.3-3.7 9.8-32.5-0.8-52-6-19.6-5.3-11 14.4-22.6 8.5-5.3 1.5-10.9 0.6-15.3-2.7-5.4 3.5-11 6.4-16.8 8.6q-4 1.6-8.1 2.8c-1.4 0.4-2.8 0.7-4.2 1q-4.2 1-8.4 1.6c-1.4 0.2-2.8 0.4-4.2 0.5-1.5 0.1-2.9 0.2-4.3 0.3q-4 0.2-8 0c-0.3 0-0.6 0-0.9 0q-0.3 0-0.6-0.1-1.3 0-2.7-0.1c-0.1 0-0.2-0.1-0.3-0.1q-0.6 0-1.1-0.1-0.1 0-0.1 0c-1.2-0.1-2.4-0.2-3.5-0.4-1.3-0.2-2.5-0.4-3.8-0.6-0.7-0.2-1.5-0.3-2.2-0.5q-0.8-0.1-1.5-0.3-0.9-0.2-1.8-0.4-1.5-0.3-2.9-0.8c-1.3-0.3-2.7-0.8-4-1.2q-0.8-0.3-1.6-0.6c-1.1-0.4-2.3-0.8-3.4-1.2-8.2 3.3-17.6 1.5-24.1-4.7q-1 1-2.2 1.8-1.6 1.2-3.2 2.2-0.9 0.6-1.9 1.2-0.7 0.4-1.4 0.7-1 0.6-2.1 1.1-0.8 0.4-1.6 0.7-0.5 0.3-0.9 0.4-0.9 0.4-1.9 0.8-2.8 1-5.6 1.6-1.2 0.3-2.3 0.5-0.5 0.1-0.9 0.2-0.5 0.1-0.9 0.1-0.9 0.1-1.9 0.2-1.1 0.2-2.2 0.2c-7.1 0.5-14.4-0.6-21.2-3.2-1-0.4-2-0.8-2.9-1.3-0.7-0.3-1.5-0.6-2.2-1-2.1-1.1-4.2-2.4-6.1-3.8-2.9 1.4-6.4 0.9-8.6-1.4-8.4 6.2-19.4 7.4-28.9 3.1-5.2 8.1-14.3 12.9-24 12.5zm734.5-32.8c1 2.2 1.2 4.9 0.4 7.4q-0.4 1.1-1 2.1c-2.3 3.8-6.7 5.8-11.2 4.9 0.8 1.3 0.7 2.9-0.2 4.1-0.8 1.2-2.3 1.8-3.8 1.6-0.5 5.9-4.3 11-9.8 13.3-5.4 2.2-11.7 1.3-16.2-2.4-11 4.4-21.8 6.2-32.2 6.7-6.7 0.3-13.3 0.1-19.6-0.3q0 0 0 0c-16.2-1.1-31-3.4-43.5-0.6q-0.2 0-0.4 0.1c-1.4 0.6-2.8 1-4.3 1-2.4 0.2-4.8-0.3-7-1.5-3.5-1.9-5.8-5.3-6.4-9.3-2.8 0.8-5.8-0.4-7.3-2.9-1.6-2.5-1.3-5.7 0.6-7.9-5.9 5.1-14.7 4.6-20-1.1-5.3-5.7-5.1-14.6 0.4-20.1-0.7-2.1-0.7-4.4-0.1-6.5q0.6-2 1.8-3.8c2.1-3 5.5-4.9 9.2-5.1 0.9-3.6 0.9-7.3 0.1-10.8-0.7-3.3-2.2-6.4-4.3-9.1-2.4-3.1-5.6-5.5-9.4-7.1-0.8 1.6-2.6 2.4-4.3 2-1.7-0.4-3-1.9-3-3.7-8.9 2.9-18.5-1.7-21.8-10.4-3.4-8.7 0.7-18.5 9.2-22.4-0.9-4.8 2.2-9.4 7-10.4 0.1-9.8 6.6-18.4 16.1-21.1 9.5-2.8 19.6 1 24.9 9.3 1.8-2.2 4.5-3.6 7.4-3.6 2.9-0.1 5.7 1.2 7.6 3.4 1.9-1.1 3.7-1.9 5.3-2.6 16.6-6.6 16 8.3 1.3 22.1 0.9-0.2 17.3-4.6 9.3 7.4 1.6-0.7 3.5-0.2 4.6 1.3 1.1 1.4 1 3.4-0.2 4.8 2.6-1.4 5.9-0.7 7.7 1.6 1.9 2.3 1.9 5.6-0.1 7.9 4.7-1.8 9.9-1.2 14.1 1.4-12.3-22.5-8.1-38.6 0.2-45 8.1-6.4 20.2-3.4 24.3 12 0.5-0.8 1.3-1.4 2.3-1.6 0.9-0.1 1.9 0.2 2.6 0.8-1-2-0.8-4.4 0.6-6.1 1.4-1.8 3.7-2.5 5.9-2 2.2 0.5 3.8 2.2 4.3 4.4 2.8-4.5 6.4-6.9 9.7-7.2 8.8-1.1 16 11.1 3.7 32.3 3.2-0.3 6.4 0.9 8.5 3.4 2.1 2.4 2.8 5.7 2 8.8 14.1-5.8 30.1-0.7 38.3 11.8q0 0 0 0 0.8 1.1 1.4 2.3c7.7 14.2 3.3 31.9-10 41 2.5 1.1 4.3 3 5.3 5.4q0 0 0 0zm-154.9 87.1c2.9-0.8 6 0.1 8 2.4 11.5-8 22.9-5.9 26.5 0.4q0 0 0 0.1c2.7 4.7 1 11.9-8.7 18.9 1.2 0.4 2.1 1.4 2.5 2.7 0.3 1.2 0 2.5-0.9 3.5q1.2 0.5 2.1 1.3c1.6 1.3 2.6 3.3 2.8 5.4 0.4 3-1 5.9-3.4 7.6-2.5 1.6-5.7 1.9-8.4 0.5q-1 0.6-2 1c-4.3 1.9-8.9 2.9-13.5 2.9-4.2 0-8.4-0.7-12.4-2.2q0 0 0 0c-3.1-1.2-6-2.8-8.7-4.9-6.2 2.4-13.2 1.4-18.4-2.6-0.7 1-2 1.5-3.2 1.3-1.2-0.2-2.1-1-2.5-2.2q-2.3 0.9-4.5 1.5c-12.7 3.7-26.3 1.7-37.5-5.5q-1.2-0.9-2.1-2.1 0 0 0 0c-2.6-3.2-3.1-7.8-1-11.7 1.2-2.3 3.2-4 5.5-4.9 2.4-0.9 5-0.9 7.5 0-0.8-0.4-1.3-1.2-1.3-2.2 0.1-0.9 0.8-1.7 1.8-1.9-0.8-0.5-1.5-1.1-2.1-1.9-3.8-4.9-3-14.2 8.7-7.7 2.3-7.1 5.4-12 12.5-9.9 2.5 0.8 4.8 2.2 6.8 4 3.7 3.3 6.2 8.3 7 13.9 0.7-2.7 3.4-4.4 6.2-3.7 1.3-2.7 2.9-5 4.6-6.9 12.6-14.3 31.6-7.3 28.1 2.9zm-72.3 13.4q0.1 0 0.2 0-0.1 0-0.2 0zm-256.1-57.6c-4.7 0.6-10.9 0-14.5-0.4-0.6-0.1-0.9-0.8-0.6-1.2q0.2-0.2 0.4-0.3c1.3-0.5 2.9-1 4.1-1.1 0-1.5 2-4.2 7.6-1.6 0-0.4 0.1-0.8 0.5-1.1 0.3-0.2 0.7-0.3 1.1-0.2 0.8-3.4 3.9-5.8 7.4-5.8 3.5 0 6.6 2.4 7.4 5.8 2.1-2.8 5.9-3.6 8.9-1.9 1.4 0.8 2.4 1.9 3 3.3q0.3 0.7 0.3 1.4c0.1 2.1-1.6 4.1-3.8 4.2-8.9 0.5-23.3 0.5-21.8-1.1zm60.3-91.7c1.6-1 2.9-2.1 8.5-1.7-1.9-1.3 0.6-4.7 6.4-5.3 1.6-0.2 3.5-0.1 5.6 0.2-1.2-2.4-0.6-5.4 1.5-7.2 2.1-1.8 5.1-1.9 7.4-0.3 0.8-5.9 3.3-10.2 6.6-13.1 10.4-9.5 28.4-4.3 20.9 10.6 1.6-0.8 3.6-0.2 4.6 1.4 1.3-1.9 3.6-2.6 5.8-1.8 2.1 0.7 3.4 2.8 3.3 5 1.9-1.1 4.3-1.1 6.3 0 1.9 1.1 3.1 3.2 3.1 5.4 3.8 2.3 10.7 2.4 16.6 2.2 6.5-0.3 11.7-1.1 10.3-0.1-2.8 2.1 0.1 3.7 10.2 3.7 7.5 0 17.6 0.6 22.1 0.9 0.4 0 0.4 0.6 0 0.7-15.4 2.9-38.7-0.2-43.9-0.1-5.2 0.2-32 2.7-44.3 1-12.4-1.8-26.6-0.2-36 0.7-7.8 0.7-9.5-0.6-14.7-0.9-0.7-0.1-0.9-0.9-0.3-1.3z"/>
</svg>